<svg xmlns="http://www.w3.org/2000/svg" version="1.1" xmlns:xlink="http://www.w3.org/1999/xlink" xmlns:svgjs="http://svgjs.dev/svgjs" viewBox="0 0 5.97987437678541 5.2761212039878185"><g transform="matrix(1,0,0,1,2.9947945717853903,4.448222432555479)"><rect width="5.97987437678541" height="5.97987437678541" x="-2.9947945717853903" y="-4.800099018954274" fill="#ffffff"></rect><g><path d=" M -2.1499328367497377 -1.150796603530557 Q -2.201632428919491 -1.1532508497012426 -2.249037316268801 -1.168944076422759 Q -2.296442203618111 -1.1846373031442754 -2.3366723006688916 -1.2124551268188526 Q -2.3769023977196717 -1.24027295049343 -2.409260836368162 -1.2794490432200243 Q -2.441619275016652 -1.3186251359466186 -2.463725278419248 -1.3678244013924203 Q -2.4858312818218438 -1.4170236668382221 -2.496488673240303 -1.475700489837227 Q -2.5071460646587616 -1.5343773128362317 -2.5039740672494792 -1.60119659705563 Q -2.5019365798624955 -1.6441170131965577 -2.4947076899511043 -1.683124753402101 Q -2.487478800039713 -1.7221324936076445 -2.476324144139441 -1.7563099770390043 Q -2.465169488239168 -1.790487460470364 -2.4513315496197796 -1.8194048382903412 Q -2.4374936110003915 -1.8483222161103185 -2.422702604933253 -1.8715727927474766 L -2.342754809519671 -1.825738091961873 Q -2.3572201564455364 -1.799050238047744 -2.367898656977088 -1.7646057353498223 Q -2.3785771575086394 -1.7301612326519007 -2.3803599589722504 -1.6926058685285894 Q -2.3827447453456525 -1.6423694723636402 -2.3667361486733833 -1.5985923853895492 Q -2.3507275520011137 -1.554815298415458 -2.319043584900931 -1.5220260282412048 Q -2.2873596178007483 -1.4892367580669517 -2.241138573846492 -1.4692002498625447 Q -2.194917529892235 -1.4491637416581375 -2.136389689700062 -1.4463853497667956 Q -2.0783495815094897 -1.4436301111412146 -2.030449925787547 -1.4589541730529125 Q -1.9825502700656048 -1.4742782349646104 -1.9476703955800705 -1.5036632183616612 Q -1.9127905210945362 -1.5330482017587121 -1.8924746602803784 -1.5748565044327942 Q -1.8721587994662205 -1.6166648071068765 -1.8697971663585797 -1.6664134712702243 L -2.1151263631641077 -1.6780595639480995 L -2.1016280092253377 -1.9624073208817436 L -2.0118546005618274 -1.9073072254863295 L -1.8148108719148426 -1.8979533061188112 L -1.8138122546458784 -1.8983947315888903 Q -1.8008025366217344 -1.8738244188033448 -1.7893008077133006 -1.8380825765124889 Q -1.7777990788048668 -1.8023407342216327 -1.7693619047903004 -1.758678656866039 Q -1.760924730775734 -1.7150165795104455 -1.7568995413310335 -1.6659423868954053 Q -1.752874351886333 -1.6168681942803653 -1.7553054447912573 -1.5656563341122132 Q -1.7600518642723 -1.4656712737839164 -1.7933683625869024 -1.38684013209903 Q -1.8266848609015045 -1.3080089904141434 -1.880315480631392 -1.2543393265020206 Q -1.9339461003612795 -1.2006696625898978 -2.003408640428994 -1.1739040250650938 Q -2.072871180496709 -1.14713838754029 -2.1499328367497377 -1.150796603530557 M -2.0293947925551947 -2.22418286589363 Q -2.099215086720961 -2.268166948927445 -2.143206866877554 -2.3270430409463945 Q -2.1871986470341467 -2.385919132965344 -2.201077657839615 -2.4564112268242333 Q -2.2149566686450837 -2.526903320683123 -2.196450652005276 -2.6075799817270067 Q -2.1779446353654683 -2.68825664277089 -2.122769335938434 -2.7758418638545734 Q -2.0675940365113994 -2.863427084938257 -2.0028165823179473 -2.9149545311904994 Q -1.9380391281244953 -2.9664819774427422 -1.8684642961992846 -2.9844013803381366 Q -1.7988894642740736 -3.0023207832335315 -1.7267895127112558 -2.9880635774270243 Q -1.6546895611484378 -2.9738063716205176 -1.5848692669826714 -2.9298222885867027 Q -1.514222697146304 -2.8853176838601793 -1.4696112102367604 -2.826051200571699 Q -1.4249997233272174 -2.766784717283219 -1.4111207125217486 -2.696292623424329 Q -1.39724170171628 -2.6258005295654394 -1.4157477183560878 -2.5451238685215563 Q -1.4342537349958957 -2.4644472074776727 -1.4894290344229302 -2.376861986393989 Q -1.5446043338499647 -2.289276765310306 -1.6093817880434165 -2.237749319058063 Q -1.6741592422368683 -2.1862218728058207 -1.7437340741620793 -2.168302469910426 Q -1.8133089060872902 -2.1503830670150315 -1.8860285644030588 -2.165030664091069 Q -1.958748222718827 -2.1796782611671066 -2.0293947925551947 -2.22418286589363 M -1.5749485663301117 -2.4307359815892537 Q -1.5593329155488753 -2.4555242517072777 -1.5560368111579026 -2.4799940699045284 Q -1.5527407067669299 -2.504463888101779 -1.5698740284832817 -2.5331470726236813 Q -1.5870073501996338 -2.5618302571455835 -1.628288338541014 -2.597069155609323 Q -1.6695693268823946 -2.6323080540730626 -1.7431078615658646 -2.6786344847240633 Q -1.8158201205787339 -2.7244403936823556 -1.8650163181681396 -2.7461986205701283 Q -1.9142125157575456 -2.767956847457901 -1.9470688721125413 -2.7707652253448254 Q -1.979925228467537 -2.7735736032317493 -2.0005731219411262 -2.760034740581364 Q -2.0212210154147154 -2.7464958779309785 -2.036836666195952 -2.721707607812955 Q -2.052452316977188 -2.696919337694931 -2.055878551791338 -2.67224295058003 Q -2.0593047866054874 -2.647566563465129 -2.042584602724436 -2.6191436397895806 Q -2.0258644188433843 -2.590720716114032 -1.9849965683373043 -2.555742078496647 Q -1.9441287178312243 -2.5207634408792616 -1.8714164588183553 -2.474957531920969 Q -1.797877924134885 -2.428631101269968 -1.7482685887101788 -2.4066126135358417 Q -1.6986592532854725 -2.3845941258017147 -1.6653897590951765 -2.381525487068437 Q -1.6321202649048805 -2.378456848335159 -1.6113422410081142 -2.3922022799031946 Q -1.5905642171113477 -2.40594771147123 -1.5749485663301117 -2.4307359815892537 M -1.517025809887093 -3.4371668260353 L -1.2762291928387872 -3.5853041680348054 L -0.9550412096326903 -3.062282605043925 L -0.7188193124246804 -3.2076055933957712 L -0.6602295864870522 -3.112368243993246 L -1.1368322171215228 -2.8191637639734997 L -1.517025809887093 -3.4371668260353 M -0.6164586552917488 -3.52558553367926 Q -0.6242369675538022 -3.607737654139256 -0.6044537626305992 -3.6785210966645834 Q -0.5846705577073963 -3.749304539189911 -0.5373056621408153 -3.803326098826002 Q -0.48994076657423424 -3.8573476584620923 -0.4147410400243857 -3.8919337454898337 Q -0.33954131347453725 -3.926519832517575 -0.23648658248329946 -3.9362772419823995 Q -0.13343185149206166 -3.9460346514472238 -0.05307726711173999 -3.9261767296494057 Q 0.027277317268581736 -3.906318807851588 0.08393936713655203 -3.8621467087130084 Q 0.14060141700452233 -3.817974609574429 0.17331779202025188 -3.752161922814201 Q 0.20603416703598132 -3.6863492360539727 0.2138124792980346 -3.6041971155939767 Q 0.22168284259277504 -3.521072780690667 0.2019686759440874 -3.449560177332854 Q 0.18225450929539977 -3.3780475739750417 0.1348896137288187 -3.324026014338951 Q 0.08752471816223761 -3.2700044547028604 0.012324991612389091 -3.235418367675119 Q -0.06287473493745932 -3.2008322806473775 -0.16592946592869712 -3.1910748711825527 Q -0.2689841969199349 -3.1813174617177284 -0.34933878130025664 -3.2011753835155465 Q -0.42969336568057837 -3.2210333053133646 -0.48635541554854866 -3.265205404451944 Q -0.5430174654165189 -3.309377503590523 -0.5758028787067637 -3.375919351183237 Q -0.6085882919970085 -3.44246119877595 -0.6164586552917488 -3.52558553367926 M -0.17545674781180393 -3.2916990660655068 Q -0.14629031451239705 -3.2944605970461174 -0.12489591815939871 -3.3067860224527115 Q -0.10350152180640049 -3.319111447859305 -0.0912397544319945 -3.3501907793870176 Q -0.0789779870575884 -3.3812701109147305 -0.07626307830886603 -3.4354783135584723 Q -0.07354816956014376 -3.4896865162022146 -0.08174071146928874 -3.576213601657122 Q -0.08984120234574666 -3.6617684726687156 -0.10263569917369786 -3.7140177515678086 Q -0.11543019600164905 -3.7662670304669015 -0.13326105085362006 -3.7940066727596595 Q -0.15109190570559083 -3.821746315052418 -0.17441937374501654 -3.8298373929554086 Q -0.1977468417844423 -3.8379284708583996 -0.22691327508384918 -3.835166939877789 Q -0.2560797083832561 -3.8324054088971784 -0.27771715834708277 -3.820056970732413 Q -0.2993546083109093 -3.8077085325676467 -0.31166240120165895 -3.777115308261591 Q -0.32397019409240857 -3.7465220839555355 -0.3267311283574743 -3.69279998853345 Q -0.32949206262254016 -3.6390778931113648 -0.32139157174608224 -3.553523022099771 Q -0.31319902983693726 -3.4669959366448637 -0.30035850749264253 -3.414260550524114 Q -0.28751798514834787 -3.361525164403364 -0.2696411047800334 -3.333299414888949 Q -0.251764224411719 -3.3050736653745343 -0.22819370276146494 -3.2970056002297152 Q -0.20462318111121086 -3.288937535084896 -0.17545674781180393 -3.2916990660655068 M 0.7078063314371098 -3.860095726514927 L 0.964667451484676 -3.743159001793922 L 0.7904762404383339 -3.360533700131371 L 1.2504143376275567 -3.613071953358616 L 1.3788448976513397 -3.5546035909981133 L 1.0391255182836099 -3.3669748936406902 L 1.1433322246182205 -2.8640461791560394 L 0.8540301672636088 -2.9957517289715665 L 0.8009705800472032 -3.2704526557355584 L 0.7316032527327758 -3.231214347304655 L 0.664030820108527 -3.082785949214885 L 0.40716970006096076 -3.19972267393589 L 0.7078063314371098 -3.860095726514927 M 1.771161417095566 -2.934473963250102 L 1.8677974699520279 -3.111229334366855 L 2.045485339654451 -2.8727928816244495 L 1.6757017007634947 -2.1539035551154604 L 1.4851759554175465 -2.409566943688187 L 1.5462633283000193 -2.522075519699421 L 1.3752861663203477 -2.7515069832577943 L 1.25030118512124 -2.7247415651292974 L 1.176483400170972 -2.8237964461536462 L 1.771161417095566 -2.934473963250102 M 1.6052858592675996 -2.630000560257397 L 1.710173795580975 -2.8226486784087284 L 1.4958721463966493 -2.776821036084001 L 1.6052858592675996 -2.630000560257397 M 2.354466150865512 -2.2720381979128175 L 2.3853928594444556 -2.178893752502716 L 2.0795454267545703 -2.077343366124097 L 2.0486187181756272 -2.1704878115341986 L 2.354466150865512 -2.2720381979128175 M 1.9255669242496667 -1.7754498261092673 Q 1.900377653233885 -1.7231086343274706 1.8884790877230462 -1.666184195960984 Q 1.8765805222122074 -1.6092597575944974 1.8776853952234012 -1.5604441346173727 Q 1.878955999186274 -1.5043061681936798 1.895656261829714 -1.4785544179946122 Q 1.9123565244731537 -1.4528026677955446 1.9401814295701147 -1.453432445411925 Q 1.948968241705997 -1.45363132255394 1.958171393325923 -1.4570142639195798 Q 1.9673745449458493 -1.4603972052852197 1.9762010336895464 -1.4696324970430585 Q 1.9850275224332434 -1.4788677888008976 1.9936993289553735 -1.494937267775534 Q 2.0023711354775036 -1.5110067467501702 2.010583413647565 -1.5365897478402897 L 2.038383220973574 -1.6246436855061708 Q 2.068480175956984 -1.7190988978096375 2.122326024985391 -1.7676930342350414 Q 2.176171874013798 -1.816287170660445 2.2518360896283407 -1.8179997238277956 Q 2.3006517126054655 -1.8191045968389894 2.3462702105240067 -1.7996240427239516 Q 2.3918887084425484 -1.7801434886089136 2.427242864700936 -1.7394291445512495 Q 2.4625970209593233 -1.6987148004935853 2.4845303931592118 -1.6359626154029105 Q 2.5064637653590998 -1.5732104303122358 2.508386244398577 -1.4882712463320393 Q 2.509336435188204 -1.4462898105717121 2.5053277225693344 -1.4076149811186647 Q 2.5013190099504654 -1.3689401516656168 2.4942763970169053 -1.3348365140147243 Q 2.4872337840833447 -1.3007328763638317 2.477867407719527 -1.272193316069805 Q 2.468501031355709 -1.243653755775778 2.4592240508852092 -1.2219539070636043 L 2.362840323227727 -1.272520277507071 Q 2.37224988845957 -1.2883622514619895 2.379180001987165 -1.3058575285705478 Q 2.38611011551476 -1.323352805679106 2.390599447893498 -1.3407928391371047 Q 2.395088780272237 -1.3582328725951032 2.397153904597287 -1.374885428057885 Q 2.399219028922338 -1.3915379835206672 2.3989096644792034 -1.405206357954262 Q 2.3983793254338304 -1.4286378569832818 2.39187961827766 -1.4460733721286472 Q 2.3853799111214897 -1.463508887274013 2.3751020145234367 -1.4752422159361136 Q 2.3648241179253837 -1.4869755445982145 2.3522380249398176 -1.4927957548525006 Q 2.3396519319542515 -1.4986159651067865 2.3274480262099706 -1.498339746853988 Q 2.316708589155003 -1.4980966747915256 2.306817398110868 -1.4927445354116327 Q 2.2969262070667327 -1.48739239603174 2.287688903204048 -1.4747289619353903 Q 2.278451599341363 -1.4620655278390409 2.2693910751604696 -1.4415915940663515 Q 2.2603305509795755 -1.421117660293662 2.2507642914213197 -1.3906199507154942 L 2.2325638898439024 -1.3315992539384673 Q 2.2029882372805996 -1.2356906216757984 2.1484764462882073 -1.1841509747765993 Q 2.093964655295815 -1.1326113278774002 2.0148833460728737 -1.1308214335992663 Q 1.9611861607980368 -1.1296060732869528 1.91524071928877 -1.1527422747602194 Q 1.8692952777795033 -1.1758784762334855 1.8352619567189743 -1.2229719974685116 Q 1.8012286356584453 -1.2700655187035377 1.7813151868107366 -1.3406779227560564 Q 1.761401737963028 -1.4112903268085746 1.7592803817815357 -1.5050163229246536 Q 1.7582638986112373 -1.549926696063608 1.7619567163694936 -1.5917690166451128 Q 1.7656495341277496 -1.6336113372266177 1.7740240309892803 -1.6736059958251008 Q 1.782398527850811 -1.7136006544235842 1.795682208835334 -1.7524854097487588 Q 1.8089658898198568 -1.7913701650739333 1.827131133102092 -1.8303654077002272 L 1.9255669242496667 -1.7754498261092673" fill="#54351d" fill-rule="nonzero"></path></g><g><path d=" M -2.0245019531249997 0.35999999999999993 Q -2.062001953125 0.35999999999999993 -2.0925019531249998 0.3449999999999999 Q -2.1230019531249997 0.3299999999999999 -2.1450019531249995 0.3042499999999999 Q -2.1670019531249998 0.2784999999999999 -2.179001953125 0.2462499999999999 Q -2.191001953125 0.2139999999999999 -2.191001953125 0.17999999999999994 Q -2.191001953125 0.14449999999999993 -2.1785019531249996 0.11224999999999993 Q -2.166001953125 0.0799999999999999 -2.1432519531249996 0.05474999999999991 Q -2.120501953125 0.029499999999999915 -2.090001953125 0.01474999999999993 Q -2.059501953125 -5.551115123125783e-17 -2.0240019531249995 -5.551115123125783e-17 Q -1.9865019531249997 -5.551115123125783e-17 -1.9560019531249997 0.015499999999999903 Q -1.9255019531249997 0.030999999999999917 -1.9037519531249996 0.05699999999999994 Q -1.8820019531249996 0.08299999999999991 -1.8700019531249996 0.11499999999999994 Q -1.8580019531249996 0.14699999999999994 -1.8580019531249996 0.18049999999999994 Q -1.8580019531249996 0.21599999999999991 -1.8705019531249998 0.24824999999999992 Q -1.8830019531249997 0.2804999999999999 -1.9055019531249997 0.3057499999999999 Q -1.9280019531249997 0.3309999999999999 -1.9585019531249996 0.3454999999999999 Q -1.9890019531249996 0.35999999999999993 -2.0245019531249997 0.35999999999999993 M -2.1560019531249996 0.17999999999999994 Q -2.1560019531249996 0.20899999999999994 -2.1465019531249996 0.23574999999999993 Q -2.1370019531249995 0.26249999999999996 -2.119501953125 0.28324999999999995 Q -2.102001953125 0.30399999999999994 -2.0777519531249995 0.3162499999999999 Q -2.0535019531249996 0.3284999999999999 -2.0245019531249997 0.3284999999999999 Q -1.9940019531249997 0.3284999999999999 -1.9697519531249996 0.3157499999999999 Q -1.9455019531249997 0.30299999999999994 -1.9282519531249998 0.28174999999999994 Q -1.9110019531249998 0.26049999999999995 -1.9020019531249996 0.23399999999999993 Q -1.8930019531249997 0.20749999999999993 -1.8930019531249997 0.17999999999999994 Q -1.8930019531249997 0.1509999999999999 -1.9025019531249998 0.12449999999999992 Q -1.9120019531249997 0.09799999999999992 -1.9297519531249998 0.0769999999999999 Q -1.9475019531249997 0.05599999999999994 -1.9715019531249998 0.04399999999999993 Q -1.9955019531249998 0.03199999999999992 -2.0245019531249997 0.03199999999999992 Q -2.0545019531249995 0.03199999999999992 -2.078751953125 0.04449999999999993 Q -2.1030019531249997 0.05699999999999994 -2.120251953125 0.07824999999999993 Q -2.1375019531249997 0.09949999999999992 -2.146751953125 0.12599999999999992 Q -2.1560019531249996 0.1524999999999999 -2.1560019531249996 0.17999999999999994 M -1.752013671875 0.06699999999999995 L -1.752013671875 0.35749999999999993 L -1.7870136718749998 0.35749999999999993 L -1.7870136718749998 0.0024999999999999467 L -1.758013671875 0.0024999999999999467 L -1.5250136718749998 0.29849999999999993 L -1.5250136718749998 0.002999999999999947 L -1.490013671875 0.002999999999999947 L -1.490013671875 0.35749999999999993 L -1.5225136718749999 0.35749999999999993 L -1.752013671875 0.06699999999999995 M -1.39602734375 0.35749999999999993 L -1.39602734375 0.0024999999999999467 L -1.36102734375 0.0024999999999999467 L -1.36102734375 0.3264999999999999 L -1.15602734375 0.3264999999999999 L -1.15602734375 0.35749999999999993 L -1.39602734375 0.35749999999999993 M -1.0995234375 0.35749999999999993 L -1.0995234375 0.0024999999999999467 L -1.0645234375000001 0.0024999999999999467 L -1.0645234375000001 0.35749999999999993 L -1.0995234375 0.35749999999999993 M -0.9355305175781251 0.06699999999999995 L -0.9355305175781251 0.35749999999999993 L -0.9705305175781251 0.35749999999999993 L -0.9705305175781251 0.0024999999999999467 L -0.9415305175781251 0.0024999999999999467 L -0.7085305175781251 0.29849999999999993 L -0.7085305175781251 0.002999999999999947 L -0.6735305175781251 0.002999999999999947 L -0.6735305175781251 0.35749999999999993 L -0.7060305175781252 0.35749999999999993 L -0.9355305175781251 0.06699999999999995 M -0.3410441894531251 0.3264999999999999 L -0.3410441894531251 0.35749999999999993 L -0.5795441894531251 0.35749999999999993 L -0.5795441894531251 0.0024999999999999467 L -0.3455441894531251 0.0024999999999999467 L -0.3455441894531251 0.03349999999999992 L -0.5445441894531251 0.03349999999999992 L -0.5445441894531251 0.16149999999999992 L -0.3710441894531251 0.16149999999999992 L -0.3710441894531251 0.19099999999999992 L -0.5445441894531251 0.19099999999999992 L -0.5445441894531251 0.3264999999999999 L -0.3410441894531251 0.3264999999999999 M -0.13753735351562513 0.35749999999999993 L -0.13753735351562513 0.0024999999999999467 L -0.017037353515625103 0.0024999999999999467 Q 0.03946264648437489 0.0024999999999999467 0.07721264648437487 0.02624999999999994 Q 0.11496264648437488 0.04999999999999993 0.1339626464843749 0.09024999999999994 Q 0.1529626464843749 0.13049999999999992 0.1529626464843749 0.17949999999999994 Q 0.1529626464843749 0.23349999999999993 0.13221264648437492 0.2734999999999999 Q 0.11146264648437487 0.31349999999999995 0.07321264648437492 0.3354999999999999 Q 0.03496264648437489 0.35749999999999993 -0.017037353515625103 0.35749999999999993 L -0.13753735351562513 0.35749999999999993 M 0.11796264648437488 0.17949999999999994 Q 0.11796264648437488 0.13699999999999993 0.10221264648437489 0.10399999999999993 Q 0.0864626464843749 0.0709999999999999 0.056462646484374907 0.05224999999999991 Q 0.02646264648437488 0.03349999999999992 -0.017037353515625103 0.03349999999999992 L -0.10253735351562511 0.03349999999999992 L -0.10253735351562511 0.3264999999999999 L -0.017037353515625103 0.3264999999999999 Q 0.02696264648437488 0.3264999999999999 0.05696264648437491 0.30699999999999994 Q 0.0869626464843749 0.2874999999999999 0.10246264648437492 0.2542499999999999 Q 0.11796264648437488 0.22099999999999992 0.11796264648437488 0.17949999999999994 M 0.4634760742187499 0.3264999999999999 L 0.4634760742187499 0.35749999999999993 L 0.22497607421874988 0.35749999999999993 L 0.22497607421874988 0.0024999999999999467 L 0.4589760742187499 0.0024999999999999467 L 0.4589760742187499 0.03349999999999992 L 0.2599760742187499 0.03349999999999992 L 0.2599760742187499 0.16149999999999992 L 0.4334760742187499 0.16149999999999992 L 0.4334760742187499 0.19099999999999992 L 0.2599760742187499 0.19099999999999992 L 0.2599760742187499 0.3264999999999999 L 0.4634760742187499 0.3264999999999999 M 0.5344804687499999 0.35749999999999993 L 0.5344804687499999 0.0024999999999999467 L 0.5694804687499999 0.0024999999999999467 L 0.5694804687499999 0.3264999999999999 L 0.77448046875 0.3264999999999999 L 0.77448046875 0.35749999999999993 L 0.5344804687499999 0.35749999999999993 M 0.8309843749999999 0.35749999999999993 L 0.8309843749999999 0.0024999999999999467 L 0.8659843749999999 0.0024999999999999467 L 0.8659843749999999 0.35749999999999993 L 0.8309843749999999 0.35749999999999993 M 0.958477294921875 0.0024999999999999467 L 1.085477294921875 0.31399999999999995 L 1.211977294921875 0.0024999999999999467 L 1.248477294921875 0.0024999999999999467 L 1.101477294921875 0.35749999999999993 L 1.069477294921875 0.35749999999999993 L 0.9219772949218749 0.0024999999999999467 L 0.958477294921875 0.0024999999999999467 M 1.5429853515624998 0.3264999999999999 L 1.5429853515624998 0.35749999999999993 L 1.3044853515625 0.35749999999999993 L 1.3044853515625 0.0024999999999999467 L 1.5384853515624999 0.0024999999999999467 L 1.5384853515624999 0.03349999999999992 L 1.3394853515624998 0.03349999999999992 L 1.3394853515624998 0.16149999999999992 L 1.5129853515625 0.16149999999999992 L 1.5129853515625 0.19099999999999992 L 1.3394853515624998 0.19099999999999992 L 1.3394853515624998 0.3264999999999999 L 1.5429853515624998 0.3264999999999999 M 1.6139897460937498 0.35749999999999993 L 1.6139897460937498 0.0024999999999999467 L 1.76398974609375 0.0024999999999999467 Q 1.7869897460937498 0.0024999999999999467 1.8059897460937497 0.0119999999999999 Q 1.8249897460937499 0.021499999999999908 1.8392397460937497 0.037749999999999895 Q 1.8534897460937498 0.05399999999999994 1.8612397460937498 0.07374999999999993 Q 1.86898974609375 0.09349999999999992 1.86898974609375 0.11399999999999993 Q 1.86898974609375 0.13949999999999993 1.8592397460937498 0.16199999999999992 Q 1.8494897460937498 0.18449999999999991 1.8317397460937497 0.19999999999999993 Q 1.8139897460937497 0.2154999999999999 1.7899897460937497 0.22049999999999992 L 1.87698974609375 0.35749999999999993 L 1.8374897460937498 0.35749999999999993 L 1.7539897460937497 0.22649999999999992 L 1.6489897460937497 0.22649999999999992 L 1.6489897460937497 0.35749999999999993 L 1.6139897460937498 0.35749999999999993 M 1.6489897460937497 0.19549999999999992 L 1.7649897460937498 0.19549999999999992 Q 1.7859897460937497 0.19549999999999992 1.8014897460937498 0.1839999999999999 Q 1.8169897460937499 0.17249999999999993 1.8254897460937498 0.15374999999999991 Q 1.8339897460937498 0.13499999999999993 1.8339897460937498 0.11399999999999993 Q 1.8339897460937498 0.09249999999999992 1.8242397460937498 0.07424999999999993 Q 1.81448974609375 0.05599999999999994 1.7982397460937498 0.0447499999999999 Q 1.7819897460937497 0.03349999999999992 1.7619897460937497 0.03349999999999992 L 1.6489897460937497 0.03349999999999992 L 1.6489897460937497 0.19549999999999992 M 1.9330014648437497 0.0024999999999999467 L 2.04900146484375 0.19349999999999992 L 2.16600146484375 0.0024999999999999467 L 2.2040014648437496 0.0024999999999999467 L 2.06650146484375 0.22549999999999992 L 2.06650146484375 0.35749999999999993 L 2.0315014648437497 0.35749999999999993 L 2.0315014648437497 0.22449999999999992 L 1.8945014648437497 0.0024999999999999467 L 1.9330014648437497 0.0024999999999999467" fill="#24265d" fill-rule="nonzero"></path></g><g clip-path="url(#SvgjsClipPath1002)"><g clip-path="url(#ae1ea2dc9-5c75-48af-9209-5c8854a7eeec747c724b-a998-43b7-a650-f526fd624160)"><path d=" M 0.4214298255690072 -1.7222700826956459 C 0.3888491649070964 -1.6146551732366066 0.45118964980997367 -1.494064416241222 0.5695707516089514 -1.4731432127858826 C 0.6158324689124441 -1.57013297172603 0.5356266866769173 -1.7083539563523187 0.4214298255690072 -1.7222700826956459" fill="#7aaf2b" transform="matrix(1,0,0,1,0,0)" fill-rule="nonzero"></path></g><g clip-path="url(#ae1ea2dc9-5c75-48af-9209-5c8854a7eeec747c724b-a998-43b7-a650-f526fd624160)"><path d=" M 0.5695707516089514 -1.4731432127858823 L 0.4214298255690072 -1.7222700826956454 C 0.5356266866769173 -1.7083539563523185 0.6158324689124439 -1.5700859577856805 0.5695707516089514 -1.4731432127858823" fill="#719b23" transform="matrix(1,0,0,1,0,0)" fill-rule="nonzero"></path></g><g clip-path="url(#ae1ea2dc9-5c75-48af-9209-5c8854a7eeec747c724b-a998-43b7-a650-f526fd624160)"><path d=" M 0.8580012756505437 -0.9777573233276495 C 0.8747852523551642 -0.8804384668050584 0.9711638300707739 -0.8104347096252815 1.0723378297019892 -0.8408057150907857 C 1.0704572720880263 -0.935162693371385 0.9531104769767278 -1.0119364579614292 0.8580012756505437 -0.9777573233276495" fill="#7aaf2b" transform="matrix(1,0,0,1,0,0)" fill-rule="nonzero"></path></g><g clip-path="url(#ae1ea2dc9-5c75-48af-9209-5c8854a7eeec747c724b-a998-43b7-a650-f526fd624160)"><path d=" M 1.0723378297019892 -0.8408057150907857 L 0.8580012756505437 -0.9777573233276495 C 0.953063463036379 -1.01188944402108 1.070410258147677 -0.9351156794310358 1.0723378297019892 -0.8408057150907857" fill="#719b23" transform="matrix(1,0,0,1,0,0)" fill-rule="nonzero"></path></g><g clip-path="url(#ae1ea2dc9-5c75-48af-9209-5c8854a7eeec747c724b-a998-43b7-a650-f526fd624160)"><path d=" M -0.030562196947026665 -1.918271200010951 C 0.0009371430868556629 -2.008961090944322 -0.048192424577930604 -2.113943219743813 -0.14856718722321194 -2.135804702006134 C -0.19130285900052346 -2.0546116270232764 -0.12759896982752306 -1.933973856087543 -0.030562196947026665 -1.918271200010951" fill="#7aaf2b" transform="matrix(1,0,0,1,0,0)" fill-rule="nonzero"></path></g><g clip-path="url(#ae1ea2dc9-5c75-48af-9209-5c8854a7eeec747c724b-a998-43b7-a650-f526fd624160)"><path d=" M -0.14856718722321216 -2.1358047020061344 L -0.030562196947026887 -1.9182712000109512 C -0.12759896982752328 -1.9340208700278922 -0.19130285900052368 -2.054658640963626 -0.14856718722321216 -2.1358047020061344" fill="#719b23" transform="matrix(1,0,0,1,0,0)" fill-rule="nonzero"></path></g><g clip-path="url(#ae1ea2dc9-5c75-48af-9209-5c8854a7eeec747c724b-a998-43b7-a650-f526fd624160)"><path d=" M 1.1985702595392633 -1.8116435832992424 C 1.1065639782761185 -1.8389116687017077 1.0039325464940811 -1.7850336930616644 0.9867254443263189 -1.6837186516094018 C 1.0697990769231394 -1.6447440950600163 1.187333927795834 -1.713995629194208 1.1985702595392633 -1.8116435832992424" fill="#7aaf2b" transform="matrix(1,0,0,1,0,0)" fill-rule="nonzero"></path></g><g clip-path="url(#ae1ea2dc9-5c75-48af-9209-5c8854a7eeec747c724b-a998-43b7-a650-f526fd624160)"><path d=" M 0.9867254443263189 -1.6837186516094018 L 1.1985702595392633 -1.8116435832992424 C 1.1872869138554847 -1.713995629194208 1.0697520629827901 -1.6447911090003655 0.9867254443263189 -1.6837186516094018" fill="#719b23" transform="matrix(1,0,0,1,0,0)" fill-rule="nonzero"></path></g><g clip-path="url(#ae1ea2dc9-5c75-48af-9209-5c8854a7eeec747c724b-a998-43b7-a650-f526fd624160)"><path d=" M -0.6414613378429437 -1.4956628902130906 C -0.6099619978090616 -1.5863527811464615 -0.6590915654738477 -1.6913349099459523 -0.759466328119129 -1.7131963922082736 C -0.8022019998964407 -1.6320033172254163 -0.7384981107234402 -1.5113655462896824 -0.6414613378429437 -1.4956628902130906" fill="#7aaf2b" transform="matrix(1,0,0,1,0,0)" fill-rule="nonzero"></path></g><g clip-path="url(#ae1ea2dc9-5c75-48af-9209-5c8854a7eeec747c724b-a998-43b7-a650-f526fd624160)"><path d=" M -0.759466328119129 -1.7131963922082734 L -0.6414613378429437 -1.4956628902130906 C -0.7384981107234402 -1.5114125602300315 -0.8022490138367897 -1.632050331165765 -0.759466328119129 -1.7131963922082734" fill="#719b23" transform="matrix(1,0,0,1,0,0)" fill-rule="nonzero"></path></g><g clip-path="url(#ae1ea2dc9-5c75-48af-9209-5c8854a7eeec747c724b-a998-43b7-a650-f526fd624160)"><path d=" M 1.0671192823232418 -2.012675192231899 C 1.0684708133428333 -1.9048297069021163 1.0117103124542586 -1.8045929636218165 0.918532123892996 -1.7502762947387314 C 0.825353935331733 -1.6959596258556462 0.7101620989692436 -1.6959596258556464 0.6169839104079811 -1.750276294738732 C 0.5238057218467183 -1.8045929636218179 0.4670452209581444 -1.9048297069021176 0.46839675197773634 -2.0126751922318986 C 0.4704503822526416 -2.176544722767793 0.6038756189639818 -2.308308337362272 0.7677580171504885 -2.3083083373622726 C 0.931640415336995 -2.308308337362273 1.0650656520483357 -2.176544722767794 1.0671192823232418 -2.012675192231899" fill="#f68712" transform="matrix(1,0,0,1,0,0)" fill-rule="nonzero"></path></g><g clip-path="url(#ae1ea2dc9-5c75-48af-9209-5c8854a7eeec747c724b-a998-43b7-a650-f526fd624160)"><path d=" M 0.5377893279329751 -2.2035517900491546 C 0.49297097554818814 -2.1500404456676447 0.4683914810105998 -2.0824759583131365 0.4683497380373871 -2.0126751922318986 C 0.4683497380373871 -1.933265263806558 0.4998984261996182 -1.8571084502729267 0.5560541315099021 -1.8009615633837028 C 0.6122098368201863 -1.7448146764944787 0.688371604057445 -1.7132779489589278 0.7677815278120848 -1.7132904200895511 C 0.7829200129130667 -1.7132904200889714 0.7977294041230263 -1.714841880120491 0.8123037256312402 -1.7170045213765486 C 0.690678661948176 -1.8228799150426718 0.7782656328185082 -2.0688568509490466 0.5377893279329751 -2.2035517900491546" fill="#f47216" transform="matrix(1,0,0,1,0,0)" fill-rule="nonzero"></path></g><g clip-path="url(#ae1ea2dc9-5c75-48af-9209-5c8854a7eeec747c724b-a998-43b7-a650-f526fd624160)"><path d=" M 0.902711532922517 -2.2531514971174316 C 0.9134307113221067 -2.2456762806019284 0.9182261332377124 -2.2340168233953572 0.9134777252624555 -2.227199802044741 C 0.9086823033468499 -2.2203827806941243 0.8961295812736461 -2.2208999340379645 0.8853633889337071 -2.228422164493817 C 0.8746912244744667 -2.2359443949496693 0.8698487886185118 -2.2475098242755425 0.8745971965937682 -2.254373859566508 C 0.8793926185093743 -2.261237894857473 0.8919453405825781 -2.260626713632935 0.902711532922517 -2.2531514971174316" fill="#ffffff" transform="matrix(1,0,0,1,0,0)" fill-rule="nonzero"></path></g><g clip-path="url(#ae1ea2dc9-5c75-48af-9209-5c8854a7eeec747c724b-a998-43b7-a650-f526fd624160)"><path d=" M 0.7630801300857557 -2.2780688855024436 C 0.767188538686477 -2.2739807331947715 0.7738281266353428 -2.2739807331947715 0.7779365352360641 -2.2780688855024436 C 0.7687218029276452 -2.399976032827602 0.7792059116254892 -2.4443101785767825 0.7798641067903762 -2.444639276159226 C 0.7635972834295954 -2.4556405382009103 0.749963240728363 -2.444639276159226 0.749963240728363 -2.444639276159226 C 0.7502923383108062 -2.289869384530062 0.7630801300857557 -2.278209927323491 0.7630801300857557 -2.2780688855024436" fill="#54351d" transform="matrix(1,0,0,1,0,0)" fill-rule="nonzero"></path></g><g clip-path="url(#ae1ea2dc9-5c75-48af-9209-5c8854a7eeec747c724b-a998-43b7-a650-f526fd624160)"><path d=" M 0.5292327907894427 -2.432791763191258 C 0.6101437821302058 -2.480416884764874 0.7201564025470477 -2.4535249108852017 0.7603533215455094 -2.3615186296220565 C 0.6908197037692232 -2.3048668315014176 0.5629417860197314 -2.342760067422774 0.5292327907894427 -2.432791763191258" fill="#7aaf2b" transform="matrix(1,0,0,1,0,0)" fill-rule="nonzero"></path></g><g clip-path="url(#ae1ea2dc9-5c75-48af-9209-5c8854a7eeec747c724b-a998-43b7-a650-f526fd624160)"><path d=" M 0.7603533215455094 -2.3614716156817073 L 0.5292327907894425 -2.4327447492509093 C 0.5629417860197314 -2.3427130534824254 0.6908197037692232 -2.304819817561069 0.7603533215455094 -2.3614716156817073" fill="#719b23" transform="matrix(1,0,0,1,0,0)" fill-rule="nonzero"></path></g><g clip-path="url(#ae1ea2dc9-5c75-48af-9209-5c8854a7eeec747c724b-a998-43b7-a650-f526fd624160)"><path d=" M -0.33817440865104265 -0.7573089570308233 C -0.33817440865104265 -0.5883282015249227 -0.47516037693694013 -0.4513422332390249 -0.644141132442841 -0.4513422332390249 C -0.8131218879487417 -0.4513422332390249 -0.9501078562346393 -0.5883282015249227 -0.9501078562346393 -0.7573089570308233 C -0.9501078562346393 -0.9262897125367242 -0.8131218879487417 -1.0632756808226218 -0.644141132442841 -1.0632756808226218 C -0.47516037693694013 -1.0632756808226218 -0.33817440865104265 -0.9262897125367242 -0.33817440865104265 -0.7573089570308233" fill="#ef2e32" transform="matrix(1,0,0,1,0,0)" fill-rule="nonzero"></path></g><g clip-path="url(#ae1ea2dc9-5c75-48af-9209-5c8854a7eeec747c724b-a998-43b7-a650-f526fd624160)"><path d=" M -0.8792108341882301 -0.9524168094794965 C -0.9250118584968897 -0.8977186434081601 -0.9501093721323725 -0.8286505521699286 -0.9501078562346394 -0.7573089570308236 C -0.950120326064903 -0.6761615362456057 -0.917896597276664 -0.5983327490355181 -0.8605255225876354 -0.5409440406981774 C -0.8031544478986068 -0.4835553323608366 -0.7253355671688576 -0.4513076872130095 -0.6441881463832678 -0.4512952192986761 C -0.6287205600083435 -0.4512952192986761 -0.6135350572755914 -0.4527996653898465 -0.5986786521252828 -0.45500932058625354 C -0.7229835104082446 -0.5632824252101796 -0.6335159819239495 -0.8147129781970477 -0.8792108341882301 -0.9524168094794965" fill="#e4222b" transform="matrix(1,0,0,1,0,0)" fill-rule="nonzero"></path></g><g clip-path="url(#ae1ea2dc9-5c75-48af-9209-5c8854a7eeec747c724b-a998-43b7-a650-f526fd624160)"><path d=" M -0.506296259339345 -1.0031448511161514 C -0.4953420112380099 -0.9954815788392519 -0.4904055475013567 -0.9835870519309349 -0.4952949972976608 -0.9766289887592716 C -0.5001844470939648 -0.9696239116472589 -0.512972238868914 -0.9701880789314479 -0.5239735009105982 -0.9778513512083475 C -0.5349277490119333 -0.9855616374255964 -0.5398642127485865 -0.997409150393564 -0.5349277490119333 -1.0043672135652275 C -0.5301323270963275 -1.011419304617589 -0.5172505074406801 -1.010808123393051 -0.506296259339345 -1.0031448511161514" fill="#ffffff" transform="matrix(1,0,0,1,0,0)" fill-rule="nonzero"></path></g><g clip-path="url(#ae1ea2dc9-5c75-48af-9209-5c8854a7eeec747c724b-a998-43b7-a650-f526fd624160)"><path d=" M -0.6333749401029023 -1.0304599504589658 C -0.6416023796639908 -1.023360845466255 -0.6486074567760035 -1.0304599504589658 -0.6486074567760035 -1.0304599504589658 C -0.6391576547658389 -1.1550468923840218 -0.6498298192250795 -1.231209475749528 -0.6504880143899665 -1.2315385733319715 C -0.6338920934467421 -1.242774905075401 -0.6200229810437642 -1.2315385733319715 -0.6200229810437642 -1.2315385733319715 C -0.6203050646858587 -1.0733366640573248 -0.6333749401029023 -1.030553978339664 -0.6333749401029023 -1.0304599504589658" fill="#54351d" transform="matrix(1,0,0,1,0,0)" fill-rule="nonzero"></path></g><g clip-path="url(#ae1ea2dc9-5c75-48af-9209-5c8854a7eeec747c724b-a998-43b7-a650-f526fd624160)"><path d=" M -0.3942150255471435 -1.1743226079271436 C -0.4768655326808223 -1.2229820361884391 -0.5893228779958164 -1.1954318671438797 -0.6304130618609103 -1.101356972505375 C -0.5593279840531048 -1.043529825876009 -0.42858221594231927 -1.0823163266639984 -0.3942150255471435 -1.1743226079271436" fill="#7aaf2b" transform="matrix(1,0,0,1,0,0)" fill-rule="nonzero"></path></g><g clip-path="url(#ae1ea2dc9-5c75-48af-9209-5c8854a7eeec747c724b-a998-43b7-a650-f526fd624160)"><path d=" M -0.6304130618609104 -1.1013099585650261 L -0.3942150255471436 -1.1742755939867948 C -0.4286292298826685 -1.0822693127236496 -0.5593279840531048 -1.0435298258760095 -0.6304130618609104 -1.1013099585650261" fill="#719b23" transform="matrix(1,0,0,1,0,0)" fill-rule="nonzero"></path></g><g clip-path="url(#ae1ea2dc9-5c75-48af-9209-5c8854a7eeec747c724b-a998-43b7-a650-f526fd624160)"><path d=" M 0.4083129362116147 -2.275483118783244 C 0.4083129362116147 -2.167068972338271 0.21193570737351664 -0.8716468599597809 0.21193570737351664 -0.8716468599597809 C 0.21193570737351664 -0.8716468599597809 0.01551146459506958 -2.167068972338271 0.01551146459506958 -2.275483118783244 C 0.015474009383570797 -2.3275895403185114 0.03615661888245647 -2.3775725802145593 0.07300143241233603 -2.414417393744436 C 0.10984624594221581 -2.4512622072743127 0.15982928583826528 -2.471944816773194 0.21193570737352463 -2.471907361561691 C 0.2640339852838829 -2.4719323322777607 0.3140049390263566 -2.4512442113836355 0.35083957937057275 -2.4144007525954776 C 0.38767421971478866 -2.37755729380732 0.40835037808846786 -2.3275813892235213 0.4083129362116147 -2.275483118783244" fill="#f68712" transform="matrix(1,0,0,1,0,0)" fill-rule="nonzero"></path></g><g clip-path="url(#ae1ea2dc9-5c75-48af-9209-5c8854a7eeec747c724b-a998-43b7-a650-f526fd624160)"><path d=" M 0.21193570737351664 -2.471907361561691 C 0.1598292858382575 -2.471944816773192 0.10984624594220871 -2.4512622072743087 0.07300143241233048 -2.41441739374443 C 0.03615661888245225 -2.377572580214552 0.015474009383568799 -2.3275895403185034 0.01551146459506958 -2.275483118783244 C 0.01551146459506958 -2.16711598627862 0.21193570737351664 -0.8716938739001301 0.21193570737351664 -0.8716938739001301 L 0.21287598618049808 -0.8720229714825736 L 0.21287598618049808 -2.471907361561691 Z" fill="#f47216" transform="matrix(1,0,0,1,0,0)" fill-rule="nonzero"></path></g><g clip-path="url(#ae1ea2dc9-5c75-48af-9209-5c8854a7eeec747c724b-a998-43b7-a650-f526fd624160)"><path d=" M 0.21085438674548795 -2.471672291859946 C 0.2065761181737218 -2.600396460535721 0.09463592620256778 -2.708105397875458 -0.04156345898871061 -2.6869961386587224 C -0.056090766556575744 -2.56475989375112 0.08175410654692028 -2.444592262218877 0.21085438674548795 -2.471672291859946" fill="#7aaf2b" transform="matrix(1,0,0,1,0,0)" fill-rule="nonzero"></path></g><g clip-path="url(#ae1ea2dc9-5c75-48af-9209-5c8854a7eeec747c724b-a998-43b7-a650-f526fd624160)"><path d=" M -0.04156345898871083 -2.686996138658722 L 0.21085438674548773 -2.4716722918599454 C 0.08175410654692028 -2.444592262218877 -0.056090766556575744 -2.5648069076914686 -0.04156345898871083 -2.686996138658722" fill="#719b23" transform="matrix(1,0,0,1,0,0)" fill-rule="nonzero"></path></g><g clip-path="url(#ae1ea2dc9-5c75-48af-9209-5c8854a7eeec747c724b-a998-43b7-a650-f526fd624160)"><path d=" M 0.2128759861804983 -2.4709670827547097 C 0.21621397594528302 -2.5709657338771983 0.3032367795314259 -2.654650547698557 0.40892411743615265 -2.6382426825167284 C 0.4202544770602805 -2.5433215369519404 0.3131567209450812 -2.449951851418672 0.2128759861804983 -2.4709670827547097" fill="#7aaf2b" transform="matrix(1,0,0,1,0,0)" fill-rule="nonzero"></path></g><g clip-path="url(#ae1ea2dc9-5c75-48af-9209-5c8854a7eeec747c724b-a998-43b7-a650-f526fd624160)"><path d=" M 0.40892411743615265 -2.638195668576379 L 0.2128759861804983 -2.4709200688143604 C 0.31315672094508096 -2.449951851418672 0.4202544770602803 -2.5433215369519404 0.40892411743615265 -2.638195668576379" fill="#719b23" transform="matrix(1,0,0,1,0,0)" fill-rule="nonzero"></path></g><g clip-path="url(#ae1ea2dc9-5c75-48af-9209-5c8854a7eeec747c724b-a998-43b7-a650-f526fd624160)"><path d=" M -0.7443278393267259 -1.3421623749733516 C -0.7443278393267259 -1.1301295039990107 -0.9992844378397747 -0.9690597443630702 -0.9992844378397747 -0.9690597443630702 C -0.9992844378397747 -0.9690597443630702 -1.2542880502931728 -1.1314458943287846 -1.2542880502931728 -1.3421623749733516 C -1.255536248802831 -1.4340831066509359 -1.2072121529321236 -1.5195605660732825 -1.127807979424115 -1.5658850319760005 C -1.0484038059161067 -1.612209497878719 -0.9502120837037924 -1.612209497878719 -0.8708079101957839 -1.5658850319760007 C -0.7914037366877754 -1.5195605660732827 -0.7430796408170679 -1.4340831066509363 -0.7443278393267259 -1.3421623749733518" fill="#9c1661" transform="matrix(1,0,0,1,0,0)" fill-rule="nonzero"></path></g><g clip-path="url(#ae1ea2dc9-5c75-48af-9209-5c8854a7eeec747c724b-a998-43b7-a650-f526fd624160)"><path d=" M -0.998767284495935 -1.5971659874267496 C -0.9962755456574339 -1.670601762252009 -0.932383600723037 -1.7320959962286029 -0.8547165712663607 -1.7201544553799373 C -0.8463951038245738 -1.6503857679019056 -0.9250964399689301 -1.581698401051903 -0.998767284495935 -1.5971659874267496" fill="#7aaf2b" transform="matrix(1,0,0,1,0,0)" fill-rule="nonzero"></path></g><g clip-path="url(#ae1ea2dc9-5c75-48af-9209-5c8854a7eeec747c724b-a998-43b7-a650-f526fd624160)"><path d=" M -0.8546695573260115 -1.720154455379937 L -0.9987202705555859 -1.5971659874267494 C -0.925049426028581 -1.5817454149922519 -0.8463480898842247 -1.6503857679019056 -0.8546695573260115 -1.720154455379937" fill="#719b23" transform="matrix(1,0,0,1,0,0)" fill-rule="nonzero"></path></g><g clip-path="url(#ae1ea2dc9-5c75-48af-9209-5c8854a7eeec747c724b-a998-43b7-a650-f526fd624160)"><path d=" M -0.9964636014188302 -1.5973540431881457 C -0.999378465720473 -1.6855051813426667 -1.0760111884894699 -1.7593170676907188 -1.1693338600823893 -1.744883788003552 C -1.1792538014960448 -1.6612459881225425 -1.0848498092750964 -1.57878353675026 -0.9964636014188302 -1.5973540431881457" fill="#7aaf2b" transform="matrix(1,0,0,1,0,0)" fill-rule="nonzero"></path></g><g clip-path="url(#ae1ea2dc9-5c75-48af-9209-5c8854a7eeec747c724b-a998-43b7-a650-f526fd624160)"><path d=" M -1.16928684614204 -1.744883788003552 L -0.996416587478481 -1.5973540431881457 C -1.0848498092750964 -1.5787835367502598 -1.1792538014960445 -1.6612930020628915 -1.16928684614204 -1.744883788003552" fill="#719b23" transform="matrix(1,0,0,1,0,0)" fill-rule="nonzero"></path></g><g clip-path="url(#ae1ea2dc9-5c75-48af-9209-5c8854a7eeec747c724b-a998-43b7-a650-f526fd624160)"><path d=" M -1.2297937873713032 -1.4507645771797213 C -1.2458872274685464 -1.4168199355596458 -1.254252803998426 -1.3797287996977994 -1.2542880502931728 -1.3421623749733516 C -1.2542880502931728 -1.1314458943287846 -0.9992844378397747 -0.969106758303419 -0.9992844378397747 -0.969106758303419 C -0.9992844378397747 -0.969106758303419 -0.9800087222966529 -0.9812833688538303 -0.9521294556696498 -1.0033329068775478 C -1.068206874391523 -1.1621930113170817 -0.9260837327162607 -1.2683034746849504 -1.2297937873713032 -1.4507645771797213" fill="#8c1758" transform="matrix(1,0,0,1,0,0)" fill-rule="nonzero"></path></g><g clip-path="url(#ae1ea2dc9-5c75-48af-9209-5c8854a7eeec747c724b-a998-43b7-a650-f526fd624160)"><path d=" M -0.851989762726114 -1.5280554951136052 C -0.8432921837615346 -1.5202041670753093 -0.8401892636984954 -1.509296932914323 -0.8451727413754977 -1.503749287953132 C -0.8502032329928491 -1.4981546290515917 -0.8613455368555805 -1.5000351866655548 -0.870137143700858 -1.5078395007635017 C -0.8788817366057865 -1.5157378427421468 -0.8819376427284766 -1.526692090843482 -0.8769541650514743 -1.532239735804673 C -0.8719706873744721 -1.5378343947062132 -0.8607343556310425 -1.5359538370922503 -0.851989762726114 -1.5280554951136052" fill="#ffffff" transform="matrix(1,0,0,1,0,0)" fill-rule="nonzero"></path></g><g clip-path="url(#ae1ea2dc9-5c75-48af-9209-5c8854a7eeec747c724b-a998-43b7-a650-f526fd624160)"><path d=" M -0.2447106952370759 -1.9290373923508897 C -0.2447106952370759 -1.9290373923508897 -0.3250575192936499 -1.8743131657845633 -0.4031946881538173 -1.9290373923508897 L -0.42218832005484463 -2.4805579265859214 L -0.22571706333604857 -2.4805579265859214 Z" fill="#8dc625" transform="matrix(1,0,0,1,0,0)" fill-rule="nonzero"></path></g><g clip-path="url(#ae1ea2dc9-5c75-48af-9209-5c8854a7eeec747c724b-a998-43b7-a650-f526fd624160)"><path d=" M -0.1936535560179775 -2.6159110608509164 C -0.2006116191896412 -2.6159110608509164 -0.20733461265955921 -2.615252865686029 -0.2140105921891282 -2.6142655729386983 C -0.2435256835753823 -2.6427157709958324 -0.28293464013782355 -2.6585939733404946 -0.3239291847252721 -2.65855270474753 C -0.36492372931272066 -2.6585939733404946 -0.404332685875162 -2.6427157709958324 -0.433847777261416 -2.6142655729386983 C -0.4405836132676936 -2.615315157173667 -0.44738784884045835 -2.615865153120657 -0.4542048134325668 -2.6159110608509164 C -0.5109869017027477 -2.6159303889560817 -0.561916873308366 -2.580978233278286 -0.5823199030573676 -2.527988401244587 C -0.6027229328063691 -2.4749985692108876 -0.5883848828491411 -2.41491583027783 -0.5462523283581409 -2.376849391332728 C -0.5041197738671404 -2.3387829523876262 -0.44289497106439224 -2.330595234998845 -0.39224044005248226 -2.3562530683029594 C -0.3709103004118166 -2.3460512718572257 -0.3475734146668963 -2.3407350232807844 -0.3239291847252722 -2.340691454047415 C -0.2994349218034026 -2.340691454047415 -0.27630406315165634 -2.3464271547700024 -0.25561792939806216 -2.3562530683029594 C -0.20494016858758624 -2.3304924258729236 -0.14362748931184588 -2.3386324620080132 -0.10142690021785805 -2.3767238838676965 C -0.05922631112387 -2.4148153057273802 -0.044869503772788866 -2.4749766463950738 -0.06532195541109931 -2.5280194909752294 C -0.08577440704940953 -2.5810623355553854 -0.1368043165764814 -2.616011629710049 -0.1936535560179775 -2.6159110608509164" fill="#7aaf2b" transform="matrix(1,0,0,1,0,0)" fill-rule="nonzero"></path></g><g clip-path="url(#ae1ea2dc9-5c75-48af-9209-5c8854a7eeec747c724b-a998-43b7-a650-f526fd624160)"><path d=" M -0.1936535560179775 -2.4044893711011133 C -0.21519780930878318 -2.404474231227429 -0.23643683526971793 -2.4095825553773658 -0.25561792939806205 -2.419392790191771 C -0.2987881618762982 -2.3986120964018096 -0.3490702075742461 -2.3986120964018096 -0.39224044005248226 -2.419392790191771 C -0.41141964618480487 -2.409577453990593 -0.43265992191182057 -2.4044688292520013 -0.4542048134325667 -2.4044893711011133 C -0.5178062105553407 -2.4045464893270503 -0.573040375970616 -2.4482824540517907 -0.5876773900835986 -2.5101767090058402 C -0.5998654167472917 -2.4582581708367344 -0.5808714298095803 -2.4039801673726267 -0.5389703684062055 -2.370989507287651 C -0.4970693070028307 -2.3379988472026745 -0.43984991138916896 -2.3322704996707166 -0.39224044005248226 -2.3563000822433087 C -0.37150729235853885 -2.3464271547700024 -0.3484234476471416 -2.340691454047415 -0.3239291847252721 -2.340691454047415 C -0.2994349218034026 -2.340691454047415 -0.27630406315165634 -2.3464271547700024 -0.25561792939806216 -2.3563000822433087 C -0.21308011765171675 -2.334783201601167 -0.16242520575051422 -2.33687386356265 -0.12180516460849655 -2.3618228883603543 C -0.0811851234664791 -2.386771913158059 -0.05641567694070204 -2.431007255204464 -0.05637285019867044 -2.478677368971958 C -0.05637285019867044 -2.489537589192595 -0.05778326840914261 -2.5000687118307887 -0.060180979366945664 -2.5101767090058402 C -0.07481799347992824 -2.4482824540517907 -0.1300521588952035 -2.4045464893270503 -0.1936535560179775 -2.4044893711011133" fill="#719b23" transform="matrix(1,0,0,1,0,0)" fill-rule="nonzero"></path></g><g clip-path="url(#ae1ea2dc9-5c75-48af-9209-5c8854a7eeec747c724b-a998-43b7-a650-f526fd624160)"><path d=" M -0.1220983388066812 -2.577124560062927 C -0.1125545089158182 -2.5701664968912636 -0.1084172821650995 -2.559588360312721 -0.1128836064982619 -2.5535235620076904 C -0.11725590295072608 -2.54741174976231 -0.12863327651520273 -2.548116958867546 -0.13817710640606573 -2.5550750220392096 C -0.14776795023727773 -2.5620800991512223 -0.15190517698799644 -2.572705249670114 -0.14743885265483403 -2.578723034034796 C -0.14301954226202085 -2.5848818602205252 -0.13164216869754397 -2.58412963717494 -0.1220983388066812 -2.577124560062927" fill="#ffffff" transform="matrix(1,0,0,1,0,0)" fill-rule="nonzero"></path></g><g clip-path="url(#ae1ea2dc9-5c75-48af-9209-5c8854a7eeec747c724b-a998-43b7-a650-f526fd624160)"><path d=" M -0.4472467502609032 -2.021043673614035 C -0.4472467502609032 -2.0000754562183465 -0.47296337563184887 -1.9796714061068466 -0.4789341460561817 -1.9601606208619793 C -0.5127841831075177 -1.8500539725644392 -0.627733267261013 -1.7684847860587891 -0.7774256533324766 -1.7684847860587891 C -0.9271180394039404 -1.7684847860587891 -1.0425372629609264 -1.8504300840872316 -1.076152230310517 -1.9610068717882627 C -1.0819349449734537 -1.9801885594506863 -1.1120708807372126 -2.0003105259200917 -1.1120708807372126 -2.021043673614035 C -1.1120708807372126 -2.040977584322044 -1.0822170286155481 -2.060347327745864 -1.076763411535055 -2.0789178341837498 C -1.044182750873144 -2.1905759425128095 -0.9269769975828932 -2.27364957510963 -0.7774256533324766 -2.27364957510963 C -0.6278743090820602 -2.27364957510963 -0.5111386951953001 -2.190858026154904 -0.4783229648316437 -2.079623043288986 C -0.4727283059301034 -2.0607704532090056 -0.4472467502609032 -2.0412126540237896 -0.4472467502609032 -2.021043673614035" fill="#fbc707" transform="matrix(1,0,0,1,0,0)" fill-rule="nonzero"></path></g><g clip-path="url(#ae1ea2dc9-5c75-48af-9209-5c8854a7eeec747c724b-a998-43b7-a650-f526fd624160)"><path d=" M -0.6998056378161491 -1.7762420862163868 C -0.8727699243604063 -1.9398035846908286 -0.7670825864556795 -2.0798110990503824 -0.9496377168311485 -2.231054945153365 C -1.0127774387199602 -2.1961235874740006 -1.0583339469182165 -2.1421045700129104 -1.076763411535055 -2.0789178341837493 C -1.082217028615548 -2.0603003138055147 -1.1121178946775616 -2.040977584322044 -1.1121178946775616 -2.021043673614035 C -1.1121178946775616 -2.0003105259200913 -1.0819349449734537 -1.9801885594506863 -1.0761522303105169 -1.9610068717882623 C -1.0425372629609264 -1.8504300840872314 -0.9271180394039404 -1.7684847860587887 -0.7774256533324766 -1.7684847860587887 C -0.7513570580986195 -1.768449169747271 -0.7253515936541238 -1.7710481410575931 -0.699805637816149 -1.7762420862163868" fill="#fab20b" transform="matrix(1,0,0,1,0,0)" fill-rule="nonzero"></path></g><g clip-path="url(#ae1ea2dc9-5c75-48af-9209-5c8854a7eeec747c724b-a998-43b7-a650-f526fd624160)"><path d=" M -0.5917205889536193 -2.1985212984318037 C -0.5813305081364732 -2.1910460819163005 -0.5768641838033108 -2.1795746804711253 -0.5817066196592657 -2.172945714881905 C -0.5864550276345226 -2.1664107771733834 -0.5987256660656319 -2.167210014159318 -0.6090687329424291 -2.1746852306748212 C -0.6193647858788771 -2.182254475071023 -0.6238311102120395 -2.1936788625758488 -0.6190356882964335 -2.2003078281650685 C -0.6142402663808276 -2.2067957519332415 -0.6020636558304164 -2.2060905428280053 -0.5917205889536193 -2.1985212984318037" fill="#ffffff" transform="matrix(1,0,0,1,0,0)" fill-rule="nonzero"></path></g><g clip-path="url(#ae1ea2dc9-5c75-48af-9209-5c8854a7eeec747c724b-a998-43b7-a650-f526fd624160)"><path d=" M 1.2417760707200658 -1.3387773712682178 C 1.2417844702177707 -1.2325145463452238 1.1851016889671102 -1.1343191659654646 1.093079582397363 -1.081180480117129 C 1.001057475827616 -1.0280417942687936 0.8876763912590613 -1.0280328335745812 0.7956458865628451 -1.081156973441329 C 0.7036153818666295 -1.134281113308077 0.6469170802382451 -1.2324675329937576 0.6469086834831381 -1.3387303579172298 C 0.648942725315462 -1.5015402345530866 0.7814965815869874 -1.6324587398374002 0.9443191638127739 -1.6324716081360033 C 1.1071417460385604 -1.6324844764346063 1.2397162943243722 -1.5015869249481708 1.2417760707200658 -1.338777371268217 Z" fill="none" transform="matrix(1,0,0,1,0,0)" fill-rule="nonzero" stroke-dasharray="none" stroke-miterlimit="10" stroke-linejoin="miter" stroke-linecap="butt" stroke-width="0.025011416265709394" stroke="#fab20b"></path></g><g clip-path="url(#ae1ea2dc9-5c75-48af-9209-5c8854a7eeec747c724b-a998-43b7-a650-f526fd624160)"><path d=" M 0.9342108729563987 -1.3729094919616485 C 0.9365145560335033 -1.3668917075969664 0.9399465736789863 -1.3676439306425516 0.9429554658613275 -1.3676439306425516 C 0.9459643580436683 -1.3676439306425516 0.9499135290329905 -1.3676909445829006 0.9521231842293971 -1.3737087289475827 L 1.0150278364164633 -1.5478013500602177 C 1.0171904776725211 -1.5539131623055977 1.0115017908902828 -1.5633629643157625 1.0052959507642043 -1.5648674104069331 C 1.0052959507642043 -1.5648674104069331 0.9358563608686163 -1.5868229205499522 0.8818373434075257 -1.5640681734209987 C 0.8741740711306265 -1.561247337000054 0.8729987226218994 -1.5522206604530313 0.8751613638779572 -1.546202876088349 Z" fill="#fbc707" transform="matrix(1,0,0,1,0,0)" fill-rule="nonzero"></path></g><g clip-path="url(#ae1ea2dc9-5c75-48af-9209-5c8854a7eeec747c724b-a998-43b7-a650-f526fd624160)"><path d=" M 0.9639706971973652 -1.3045982366344384 C 0.9597864565062977 -1.3094406724903935 0.9567775643239564 -1.3075601148764302 0.9539567279030117 -1.3065258081887505 C 0.9510888775417181 -1.3054915015010709 0.9474217901944899 -1.3040810832905985 0.9474217901944899 -1.2976401734627747 L 0.9485031108225186 -1.1124992763681065 C 0.9485031108225186 -1.1061053804806318 0.9571536758467489 -1.0991473173089683 0.9635005577938742 -1.0998055124738555 C 0.9635005577938742 -1.0998055124738555 1.0362781374542471 -1.1032375301193382 1.0791078371122567 -1.1431993794160542 C 1.0853606911786844 -1.1485119546755 1.083292077803325 -1.1573975894014759 1.0792488789333043 -1.1623340531381288 Z" fill="#fbc707" transform="matrix(1,0,0,1,0,0)" fill-rule="nonzero"></path></g><g clip-path="url(#ae1ea2dc9-5c75-48af-9209-5c8854a7eeec747c724b-a998-43b7-a650-f526fd624160)"><path d=" M 0.9816949527089676 -1.3241560358196547 C 0.975395084702191 -1.3250963146266361 0.9743137640741624 -1.3217113109215026 0.972809317982992 -1.3191255442023033 C 0.9713518858321704 -1.316492763542755 0.9694713282182075 -1.3131077598376213 0.9736085549689262 -1.3082183100413174 L 1.0942463259046595 -1.1677406562782726 C 1.098524594476426 -1.1628041925416197 1.10952585651811 -1.1631803040644122 1.113992180851272 -1.1678816980993199 C 1.113992180851272 -1.1678816980993199 1.1672119613264285 -1.2175754330482953 1.1740289826770447 -1.2757786912004536 C 1.1752513451261206 -1.283865088940495 1.1680111983123627 -1.2892716920806389 1.1616643163652374 -1.2904000266490168 Z" fill="#fbc707" transform="matrix(1,0,0,1,0,0)" fill-rule="nonzero"></path></g><g clip-path="url(#ae1ea2dc9-5c75-48af-9209-5c8854a7eeec747c724b-a998-43b7-a650-f526fd624160)"><path d=" M 0.907836052420566 -1.3265537467774577 C 0.9142299483080409 -1.3274940255844392 0.9153112689360692 -1.324156035819655 0.9167687010868908 -1.3215232551601064 C 0.9182261332377124 -1.3189374884409073 0.9201066908516757 -1.3154584568550753 0.9159694641009566 -1.3106160209991204 L 0.795284679224874 -1.170138367236076 C 0.7911004385338056 -1.1652019034994228 0.7800051486114234 -1.1655780150222153 0.7755858382186103 -1.170232395116774 C 0.7755858382186103 -1.170232395116774 0.7224130716838033 -1.2199261300657491 0.7156430642735361 -1.2781764021582567 C 0.7143266739437619 -1.2862157859579488 0.7216138346978691 -1.2916694030384421 0.7280077305853434 -1.29279773760682 Z" fill="#fbc707" transform="matrix(1,0,0,1,0,0)" fill-rule="nonzero"></path></g><g clip-path="url(#ae1ea2dc9-5c75-48af-9209-5c8854a7eeec747c724b-a998-43b7-a650-f526fd624160)"><path d=" M 0.9078830663609156 -1.3518002327449123 C 0.9133836973817575 -1.3485092569204769 0.9120673070519831 -1.3452182810960416 0.9115501537081434 -1.3422564028540496 C 0.9110330003643037 -1.3392945246120576 0.9103277912590675 -1.3354863954437823 0.9039809093119417 -1.3343110469350552 L 0.7216608486382183 -1.3022475396169844 C 0.7152669527507438 -1.3010251771679082 0.706945485308957 -1.3084063658027134 0.7064753459054662 -1.3147532477498391 C 0.7064753459054662 -1.3147532477498391 0.6968374881339052 -1.3869666601260227 0.7284778699888343 -1.436237269611856 C 0.7325680827992045 -1.4433363746045669 0.7416887872269253 -1.4428662352010762 0.7473304600688147 -1.4397633151380371 Z" fill="#fbc707" transform="matrix(1,0,0,1,0,0)" fill-rule="nonzero"></path></g><g clip-path="url(#ae1ea2dc9-5c75-48af-9209-5c8854a7eeec747c724b-a998-43b7-a650-f526fd624160)"><path d=" M 0.9809897436037314 -1.3521293303273558 C 0.9754420986425398 -1.3488853684432693 0.9767584889723142 -1.345594392618834 0.9772286283758052 -1.342585500436493 C 0.9777457817196449 -1.339623622194501 0.9783569629441831 -1.3357684790858766 0.9847508588316571 -1.33459313057715 L 1.1667888358632867 -1.3011192050486065 C 1.1731827317507613 -1.2998968425995303 1.1815512131328971 -1.3070899754729393 1.182115380417086 -1.3134838713604138 C 1.182115380417086 -1.3134838713604138 1.1922703915324868 -1.3856032558558993 1.16100612120035 -1.4351559489838273 C 1.1569629223303293 -1.442302067916887 1.1478422179026084 -1.4419259563940945 1.14215353112037 -1.4388230363310552 Z" fill="#fbc707" transform="matrix(1,0,0,1,0,0)" fill-rule="nonzero"></path></g><g clip-path="url(#ae1ea2dc9-5c75-48af-9209-5c8854a7eeec747c724b-a998-43b7-a650-f526fd624160)"><path d=" M 0.9605856934922314 -1.3702767113021 C 0.9584230522361736 -1.3642119129970691 0.9616200001799109 -1.3625664250848513 0.9638296553763175 -1.360544825649841 C 0.9661803523937713 -1.3586642680358778 0.9691422306357633 -1.3561725291973767 0.9747839034776524 -1.359322463200765 L 1.1352894958294046 -1.4517048559867027 C 1.1408841547309445 -1.45490180393044 1.1425766565835114 -1.4658560520317752 1.138768527415236 -1.4710275854701738 C 1.138768527415236 -1.4710275854701738 1.099982026627247 -1.5325688333871166 1.0439884236714951 -1.5501050331373227 C 1.0362781374542467 -1.5529258695582673 1.0296021579246777 -1.546767043372538 1.0273454887879219 -1.5407022450675072 Z" fill="#fbc707" transform="matrix(1,0,0,1,0,0)" fill-rule="nonzero"></path></g><g clip-path="url(#ae1ea2dc9-5c75-48af-9209-5c8854a7eeec747c724b-a998-43b7-a650-f526fd624160)"><path d=" M 0.9257013497532156 -1.370182683421402 C 0.9277229491882262 -1.3641178851163709 0.9245730151848377 -1.362472397204153 0.9223163460480819 -1.360497811709492 C 0.919965649030628 -1.3586172540955286 0.9169567568482873 -1.3561725291973767 0.9114091118870962 -1.359416491081463 L 0.7520318541037223 -1.453773469362062 C 0.7464842091425312 -1.4569704173057996 0.7448857351706624 -1.4679246654071345 0.748740878279287 -1.4730961988455331 C 0.748740878279287 -1.4730961988455331 0.7883266160532105 -1.5342143212993342 0.84441424688966 -1.5510453119443042 C 0.8521715470472577 -1.5537251065442017 0.8588005126364784 -1.5475192664181232 0.8610101678328845 -1.5414544681130922 Z" fill="#fbc707" transform="matrix(1,0,0,1,0,0)" fill-rule="nonzero"></path></g><g clip-path="url(#ae1ea2dc9-5c75-48af-9209-5c8854a7eeec747c724b-a998-43b7-a650-f526fd624160)"><path d=" M 0.9215171090621481 -1.3045982366344384 C 0.9257483636935653 -1.3094406724903935 0.9287572558759061 -1.3075601148764302 0.9315310783565016 -1.3065258081887505 C 0.9343989287177956 -1.3054915015010709 0.9380660160650234 -1.3040810832905985 0.9380660160650234 -1.2976401734627747 L 0.9369846954369947 -1.1124992763681065 C 0.9369846954369947 -1.1061053804806318 0.9283341304127644 -1.0991473173089683 0.9219872484656391 -1.0998055124738555 C 0.9219872484656391 -1.0998055124738555 0.8492566827456158 -1.1032375301193382 0.8063799691472566 -1.1431993794160542 C 0.8001741290211786 -1.1485119546755 0.8021957284561887 -1.1573975894014759 0.8062859412665586 -1.1623340531381288 Z" fill="#fbc707" transform="matrix(1,0,0,1,0,0)" fill-rule="nonzero"></path></g><g clip-path="url(#ae1ea2dc9-5c75-48af-9209-5c8854a7eeec747c724b-a998-43b7-a650-f526fd624160)"><path d=" M 0.29792420427197985 -0.5067716689105879 C 0.3002821838018277 -0.3956147196934361 0.2423204537122563 -0.291879898494245 0.14642086087481632 -0.23562427192817603 C 0.05052126803737589 -0.1793686453621075 -0.0683083349151854 -0.17939596460564022 -0.16418205097839111 -0.235695680368329 C -0.26005576704159716 -0.2919953961310182 -0.31796979318085583 -0.39575685747648004 -0.31556070334313635 -0.5069127107316351 C -0.3119446420309343 -0.673758452342208 -0.17563414279389988 -0.8071160232834915 -0.008749224598915362 -0.8070776559944592 C 0.15813569359606916 -0.8070392887054272 0.2943848599024399 -0.6736190555680652 0.29792420427197985 -0.5067716689105883 Z" fill="none" transform="matrix(1,0,0,1,0,0)" fill-rule="nonzero" stroke-dasharray="none" stroke-miterlimit="10" stroke-linejoin="miter" stroke-linecap="butt" stroke-width="0.025105444146407547" stroke="#f47216"></path></g><g clip-path="url(#ae1ea2dc9-5c75-48af-9209-5c8854a7eeec747c724b-a998-43b7-a650-f526fd624160)"><path d=" M -0.019937046428135208 -0.5440537236074068 C -0.01744530758963414 -0.537518785898885 -0.013684192361707703 -0.5383180228848192 -0.010440230477621437 -0.5383180228848192 C -0.007196268593534949 -0.5383180228848192 -0.0030120279024670182 -0.5383650368251685 -0.0005673030043149563 -0.5448529605933414 L 0.06755589656149863 -0.7334728892738414 C 0.07000062145965069 -0.7400548409227123 0.06882527295092378 -0.7466367925715831 0.057024773923305405 -0.751996381771378 C 0.03770204443983438 -0.7606469467956083 0.025666475710470316 -0.745367416182158 -0.008089533460167608 -0.745367416182158 C -0.04424325358860837 -0.745367416182158 -0.05453930652505656 -0.760411877093863 -0.07663585848912291 -0.7510561029643965 C -0.08495732593090954 -0.7480001968417065 -0.08617968837998569 -0.7382212972490982 -0.08387600530288086 -0.7316863595405765 Z" fill="#f68712" transform="matrix(1,0,0,1,0,0)" fill-rule="nonzero"></path></g><g clip-path="url(#ae1ea2dc9-5c75-48af-9209-5c8854a7eeec747c724b-a998-43b7-a650-f526fd624160)"><path d=" M 0.009258610528642297 -0.5419851102320474 C 0.00690791351118869 -0.5354501725235257 0.010198889335623962 -0.5336166288499116 0.01269062817412503 -0.5315010015342034 C 0.015135353072277091 -0.5293853742184944 0.01837931495636358 -0.5266115517378989 0.02453814114209263 -0.5300435693833814 L 0.1991479155985676 -0.6284907604743504 C 0.20530674178429686 -0.6318757641794841 0.20869174548943037 -0.6377054927827697 0.2032381284089373 -0.6494119639296905 C 0.1942584658022637 -0.668593651592114 0.17517080602053792 -0.6649265642448858 0.1495952224706396 -0.6868820743879054 C 0.12223310918747643 -0.7104830724431421 0.12411366680143954 -0.7285834394775372 0.10131190573213678 -0.7359176141719934 C 0.09303745223069892 -0.7390675481753817 0.08575029147659174 -0.7323915686458125 0.08316452475739267 -0.7259506588179889 Z" fill="#f68712" transform="matrix(1,0,0,1,0,0)" fill-rule="nonzero"></path></g><g clip-path="url(#ae1ea2dc9-5c75-48af-9209-5c8854a7eeec747c724b-a998-43b7-a650-f526fd624160)"><path d=" M 0.03262453888213401 -0.5214400182995003 C 0.026606754517452202 -0.5179139727733197 0.028017172727924367 -0.5143879272471388 0.02858134001211332 -0.5111439653630523 C 0.029145507296302275 -0.5079940313596643 0.029850716401538246 -0.5037627767282471 0.03671475169250371 -0.5025404142791712 L 0.2339852453972342 -0.46657474991212666 C 0.24084928068819944 -0.4653053735227015 0.24724317657567418 -0.4675150287191081 0.25044012451941144 -0.4800677507923119 C 0.2558467276595553 -0.5005658287845098 0.2388276812531891 -0.5099216029139764 0.2331860084113 -0.5431604587407741 C 0.22721523798696697 -0.5787970255253754 0.2402851134040105 -0.5914907894196264 0.22745030768871244 -0.6117067837697299 C 0.22303099729589904 -0.6194170699869783 0.21315806982259278 -0.6189939445238366 0.20714028545791074 -0.6157029686994013 Z" fill="#f68712" transform="matrix(1,0,0,1,0,0)" fill-rule="nonzero"></path></g><g clip-path="url(#ae1ea2dc9-5c75-48af-9209-5c8854a7eeec747c724b-a998-43b7-a650-f526fd624160)"><path d=" M 0.033329747987370206 -0.49055185949015634 C 0.02637168481570673 -0.491539152237487 0.025290364187677827 -0.48791907883060803 0.023644876275460414 -0.48505122846931403 C 0.02209341624394079 -0.48223039204836926 0.02007181680893022 -0.47846927682044305 0.02467918296314009 -0.47320371550134643 L 0.15641224382125585 -0.3219598693983632 C 0.16092558209476748 -0.31664729413891735 0.16731947798224178 -0.31448465288286 0.1776625448590392 -0.3221949391001089 C 0.19468159126540518 -0.3348416890540107 0.18715936080955276 -0.3528480282077071 0.20352021205103177 -0.3823257688065791 C 0.22115043968193593 -0.4138721227808104 0.23929782065668026 -0.4156116385737265 0.24188358737587956 -0.43949472027105774 C 0.24324699164600272 -0.4482393131759861 0.23525462178665935 -0.4541160557196209 0.22839058649569388 -0.45519737634765 Z" fill="#f68712" transform="matrix(1,0,0,1,0,0)" fill-rule="nonzero"></path></g><g clip-path="url(#ae1ea2dc9-5c75-48af-9209-5c8854a7eeec747c724b-a998-43b7-a650-f526fd624160)"><path d=" M 0.01330180939866299 -0.4704769069611001 C 0.008694443244453343 -0.47569545433984795 0.00554450924106531 -0.4736738549048374 0.002535617058724293 -0.47259253427680825 C -0.0005673030043147342 -0.4714641997084308 -0.004516473993637415 -0.4699597536172604 -0.004516473993637415 -0.4630016904455969 L -0.003435153365608734 -0.2623461930357327 C -0.003435153365608734 -0.2553881298640688 -0.00005014966047500735 -0.24960541520113289 0.012878683935521273 -0.248759164274849 C 0.03403495709260618 -0.24720770424332938 0.04009975539763744 -0.2656841828005172 0.07169312331221755 -0.2773436400070888 C 0.10563718824425172 -0.28980233419959456 0.12049359339456056 -0.2793182255017497 0.1380297931447665 -0.2956320628028797 C 0.1447998005550335 -0.30146179140616525 0.14254313141827768 -0.31105263523737703 0.1381238210254645 -0.3164122244371721 Z" fill="#f68712" transform="matrix(1,0,0,1,0,0)" fill-rule="nonzero"></path></g><g clip-path="url(#ae1ea2dc9-5c75-48af-9209-5c8854a7eeec747c724b-a998-43b7-a650-f526fd624160)"><path d=" M -0.014624471168689368 -0.4638479413718799 C -0.014765512989736607 -0.47075899060319415 -0.018573642158011827 -0.4712761439470343 -0.02162954828070207 -0.47235746457506256 C -0.024685454403392093 -0.47348579914344047 -0.028681639333063558 -0.4748492034135636 -0.033147963666225966 -0.4694426002734198 L -0.15980351896664158 -0.3138734716583218 C -0.164316857240153 -0.3085608963988755 -0.16535116392783267 -0.30188491686930696 -0.1559013619176679 -0.2929992821433314 C -0.14052780342351978 -0.278424960635117 -0.12416695218204055 -0.2887680275119142 -0.09229150062536573 -0.2776727375895316 C -0.058206393872284545 -0.26568418280051675 -0.053410971956678654 -0.24814798305031083 -0.029480876318997984 -0.24965242914148122 C -0.020595241593022395 -0.24979347096252846 -0.01617593120020877 -0.2585850778078065 -0.016222945140558 -0.2655431409794695 Z" fill="#f68712" transform="matrix(1,0,0,1,0,0)" fill-rule="nonzero"></path></g><g clip-path="url(#ae1ea2dc9-5c75-48af-9209-5c8854a7eeec747c724b-a998-43b7-a650-f526fd624160)"><path d=" M -0.04076422200277663 -0.4771058725503199 C -0.03639192555031223 -0.48246546175011495 -0.03902470620986054 -0.48533331211140895 -0.04062318018172939 -0.48810713459200405 C -0.04222165415359802 -0.4909279710129488 -0.04447832329035384 -0.4945480444198278 -0.05134235858131908 -0.4932316540900539 L -0.24851882440535134 -0.4564197387967259 C -0.2553358457559677 -0.45519737634765 -0.26046036525401706 -0.4507780659548364 -0.25895591916284666 -0.4379432602395381 C -0.25669925002609095 -0.41683400102280244 -0.23747054842331794 -0.4142012203632537 -0.22040448807660296 -0.38514660522752386 C -0.2021160652808116 -0.35392934883573623 -0.20973232361736205 -0.337474469713559 -0.19050362201458926 -0.3231822318474391 C -0.18363958672362402 -0.31754055900555 -0.17456589623625196 -0.32144271605452346 -0.17014658584343856 -0.3267552913139693 Z" fill="#f68712" transform="matrix(1,0,0,1,0,0)" fill-rule="nonzero"></path></g><g clip-path="url(#ae1ea2dc9-5c75-48af-9209-5c8854a7eeec747c724b-a998-43b7-a650-f526fd624160)"><path d=" M -0.052376665268998535 -0.5022113166967275 C -0.045606657858731525 -0.5037157627878983 -0.045747699679778764 -0.5075238919561733 -0.04527756027628804 -0.5107678538402598 C -0.0448074208727971 -0.5139177878436478 -0.04424325358860837 -0.5181020285347162 -0.05035506583398841 -0.5214400182995003 L -0.22665734214303002 -0.617254428730921 C -0.23272214044806105 -0.6205924184957055 -0.23944513391797928 -0.6204513766746582 -0.24640319708964253 -0.6094971285733228 C -0.25792161247516676 -0.5916788451810229 -0.2447106952370759 -0.5775276491359502 -0.24978820079477626 -0.5441477514881052 C -0.2551948039349202 -0.5084641707631552 -0.27155565517639924 -0.500518814844161 -0.26563189869241555 -0.4772469143713671 C -0.2638923828994997 -0.468549335406788 -0.2543485530086368 -0.46586954080689047 -0.24753153165802044 -0.46718593113666484 Z" fill="#f68712" transform="matrix(1,0,0,1,0,0)" fill-rule="nonzero"></path></g><g clip-path="url(#ae1ea2dc9-5c75-48af-9209-5c8854a7eeec747c724b-a998-43b7-a650-f526fd624160)"><path d=" M -0.0433029747816267 -0.5304196809061743 C -0.03714414859589765 -0.527222732962437 -0.034887479459141835 -0.5302316251447778 -0.032489768501339 -0.5323472524604864 C -0.030092057543535722 -0.5345098937165442 -0.026848095659449678 -0.537330730137489 -0.02943386237864898 -0.5438656678460103 L -0.10277560932321017 -0.7306050389125476 C -0.10526734816171124 -0.7370929626807203 -0.11048589554045884 -0.7413242173121373 -0.1228505618522664 -0.7373750463228148 C -0.1431605840830681 -0.7312162201370855 -0.1421262773953884 -0.7118934906536145 -0.16751380518389025 -0.6895148550474537 C -0.1946878627056572 -0.66572580123082 -0.21217704851551433 -0.6701451116236332 -0.22270817115370778 -0.6485186990630578 C -0.2269394257851245 -0.6407143849651105 -0.2213917808239334 -0.6326279872250695 -0.2153269825189026 -0.629195969579587 Z" fill="#f68712" transform="matrix(1,0,0,1,0,0)" fill-rule="nonzero"></path></g><g clip-path="url(#ae1ea2dc9-5c75-48af-9209-5c8854a7eeec747c724b-a998-43b7-a650-f526fd624160)"><path d=" M 0.0440959403273089 -1.5238712544225372 C 0.0440959403273089 -1.3596031613512278 -0.08906966021982221 -1.2264375608040965 -0.25333775329113184 -1.2264375608040965 C -0.41760584636244114 -1.2264375608040965 -0.5507714469095724 -1.3596031613512278 -0.5507714469095725 -1.5238712544225372 C -0.5507714469095724 -1.6881393474938466 -0.41760584636244114 -1.821304948040978 -0.25333775329113184 -1.821304948040978 C -0.08906966021982221 -1.821304948040978 0.0440959403273089 -1.6881393474938466 0.0440959403273089 -1.5238712544225372 Z" fill="none" transform="matrix(1,0,0,1,0,0)" fill-rule="nonzero" stroke-dasharray="none" stroke-miterlimit="10" stroke-linejoin="miter" stroke-linecap="butt" stroke-width="0.0243532211008223" stroke="#a5b71f"></path></g><g clip-path="url(#ae1ea2dc9-5c75-48af-9209-5c8854a7eeec747c724b-a998-43b7-a650-f526fd624160)"><path d=" M -0.2635162713767071 -1.5580503890563169 C -0.26121258829960237 -1.552032604691635 -0.25778057065411963 -1.552737813796871 -0.2547716784717786 -1.552737813796871 C -0.2517157723490886 -1.552737813796871 -0.24781361530011514 -1.5528318416775693 -0.24555694616335932 -1.558849626042251 L -0.18265229397629335 -1.7329892610952355 C -0.18048965272023576 -1.7390070454599174 -0.18622535344282332 -1.7485038614104311 -0.19243119356890137 -1.7500083075016017 C -0.19243119356890137 -1.7500083075016017 -0.2618237695241402 -1.7719638176446209 -0.3158427869852307 -1.749209070515667 C -0.3235060592621304 -1.7463882340947228 -0.3246814077708574 -1.7374085714880487 -0.32256578045514883 -1.7312967592426687 Z" fill="#b6be1a" transform="matrix(1,0,0,1,0,0)" fill-rule="nonzero"></path></g><g clip-path="url(#ae1ea2dc9-5c75-48af-9209-5c8854a7eeec747c724b-a998-43b7-a650-f526fd624160)"><path d=" M -0.23366241925504294 -1.4897861476694558 C -0.23789367388645988 -1.4945815695850617 -0.2409025660688009 -1.4927480259114476 -0.24372340248974567 -1.491713719223768 C -0.24654423891069022 -1.4906794125360883 -0.2501643123175692 -1.4892689943256159 -0.2501643123175692 -1.4828280844977921 L -0.24913000562988952 -1.2976401734627747 C -0.24913000562988952 -1.2912462775753002 -0.24047944060565918 -1.2842882144036367 -0.23413255865853366 -1.285040437449222 C -0.23413255865853366 -1.285040437449222 -0.1613549789981612 -1.2883784272140064 -0.11847826539980244 -1.3283872904510716 C -0.11227242527372394 -1.3337468796508665 -0.1143410386490833 -1.342538486496144 -0.11838423751910421 -1.3474749502327974 Z" fill="#b6be1a" transform="matrix(1,0,0,1,0,0)" fill-rule="nonzero"></path></g><g clip-path="url(#ae1ea2dc9-5c75-48af-9209-5c8854a7eeec747c724b-a998-43b7-a650-f526fd624160)"><path d=" M -0.21593816374344055 -1.5093439468546723 C -0.2223320596309153 -1.5102842256616538 -0.22336636631859497 -1.5068992219565203 -0.22482379846941636 -1.50436046917767 C -0.22628123062023775 -1.5016806745777727 -0.22820880217454986 -1.4982486569322897 -0.22402456148348215 -1.493406221076335 L -0.10338679054774835 -1.3529755812536393 C -0.09920254985668042 -1.3479921035766371 -0.08815427387464725 -1.3484152290397788 -0.08368794954148462 -1.3530696091343375 C -0.08368794954148462 -1.3530696091343375 -0.030468169066328654 -1.4027163301429637 -0.023698161656061423 -1.4609666022354713 C -0.02238177132628727 -1.4690059860351634 -0.02966893208039445 -1.4744596031156565 -0.036015814027519966 -1.4755879376840344 Z" fill="#b6be1a" transform="matrix(1,0,0,1,0,0)" fill-rule="nonzero"></path></g><g clip-path="url(#ae1ea2dc9-5c75-48af-9209-5c8854a7eeec747c724b-a998-43b7-a650-f526fd624160)"><path d=" M -0.2898440779721908 -1.5117416578124752 C -0.2834971960250653 -1.5126349226791076 -0.2823688614566875 -1.509249918973974 -0.280911429305866 -1.5067111661951238 C -0.2794069832146955 -1.5040313715952265 -0.2775734395410815 -1.5006463678900928 -0.2817576802321494 -1.4957099041534396 L -0.402395451167883 -1.3552792643307443 C -0.40657969185895093 -1.3503898145344402 -0.41767498178133333 -1.3507659260572327 -0.4220942921741466 -1.3554203061517913 C -0.4220942921741466 -1.3554203061517913 -0.4752670587089537 -1.4050670271604175 -0.48208408005956993 -1.4632702853125759 C -0.483400470389344 -1.4714036969929662 -0.4760662956948879 -1.4767632861927613 -0.4697194137477625 -1.4779386347014882 Z" fill="#b6be1a" transform="matrix(1,0,0,1,0,0)" fill-rule="nonzero"></path></g><g clip-path="url(#ae1ea2dc9-5c75-48af-9209-5c8854a7eeec747c724b-a998-43b7-a650-f526fd624160)"><path d=" M -0.28970303615114357 -1.5369411298395808 C -0.2842494190706506 -1.5336971679554945 -0.28561282334077387 -1.5304061921310592 -0.2860829627442646 -1.5274443138890672 C -0.2865531021477554 -1.5244824356470752 -0.2873053251933406 -1.5205802785981017 -0.29369922108081525 -1.5194519440297238 L -0.4759722678141899 -1.4873884367116528 C -0.4823661637016644 -1.4861660742625769 -0.49064061720310215 -1.493547262897382 -0.4911577705469421 -1.4998941448445076 C -0.4911577705469421 -1.4998941448445076 -0.500842642258852 -1.572060543280342 -0.46910823252322453 -1.6213781667065246 C -0.4650180197128547 -1.6284302577588863 -0.4559913431658318 -1.6280071322957446 -0.45030265638359335 -1.6249042122327055 Z" fill="#b6be1a" transform="matrix(1,0,0,1,0,0)" fill-rule="nonzero"></path></g><g clip-path="url(#ae1ea2dc9-5c75-48af-9209-5c8854a7eeec747c724b-a998-43b7-a650-f526fd624160)"><path d=" M -0.21669038678902575 -1.5372702274220242 C -0.2221910178098676 -1.534073279478287 -0.22087462748009368 -1.5307823036538515 -0.22040448807660296 -1.5278204254118597 C -0.219887334732763 -1.5248115332295187 -0.21922913956787582 -1.5209563901208942 -0.2128822576207503 -1.5197340276718183 L -0.030844280589121142 -1.486260102143275 C -0.02445038470164662 -1.485084753634548 -0.016128917259859765 -1.492324900448306 -0.01556474997567081 -1.4986717823954314 C -0.01556474997567081 -1.4986717823954314 -0.005362724919921069 -1.570791166890917 -0.03667400919240693 -1.6202968460784957 C -0.040670194122078396 -1.6274429650115554 -0.04979089854979968 -1.627066853488763 -0.055479585332038006 -1.6239639334257239 Z" fill="#b6be1a" transform="matrix(1,0,0,1,0,0)" fill-rule="nonzero"></path></g><g clip-path="url(#ae1ea2dc9-5c75-48af-9209-5c8854a7eeec747c724b-a998-43b7-a650-f526fd624160)"><path d=" M -0.23704742296017645 -1.5554646223371176 C -0.23921006421623403 -1.5493998240320868 -0.23606013021284578 -1.547754336119869 -0.23380346107608996 -1.5457327366848586 C -0.23145276405863613 -1.5438051651305462 -0.22849088581664412 -1.5413604402323944 -0.22289622691510402 -1.5444633602954334 L -0.062390634563352254 -1.6368457530813714 C -0.05679597566181194 -1.6400897149654576 -0.05505645986889607 -1.6509499351860946 -0.05886458903717151 -1.6561684825648422 C -0.05886458903717151 -1.6561684825648422 -0.0976510898251608 -1.7177567444221342 -0.15364469278091253 -1.7352929441723401 C -0.1613549789981612 -1.7380667666529357 -0.1680309585277302 -1.7319079404672066 -0.17028762766448602 -1.7259371700428736 Z" fill="#b6be1a" transform="matrix(1,0,0,1,0,0)" fill-rule="nonzero"></path></g><g clip-path="url(#ae1ea2dc9-5c75-48af-9209-5c8854a7eeec747c724b-a998-43b7-a650-f526fd624160)"><path d=" M -0.2719787806395413 -1.5553235805160703 C -0.27000419514488005 -1.5492587822110393 -0.2731071152079192 -1.5476132942988217 -0.2753637843446749 -1.5456857227445093 C -0.27771448136212873 -1.543711137249848 -0.28077038748481875 -1.5413134262920452 -0.28627101850566095 -1.5446044021164806 L -0.4456482762890347 -1.6388673525163815 C -0.4511959212502258 -1.642111314400468 -0.4527943952220944 -1.6531125764421521 -0.4489862660538192 -1.6582370959402017 C -0.4489862660538192 -1.6582370959402017 -0.4093535143395466 -1.7193552183940028 -0.35326588350309684 -1.7361862090389726 C -0.34550858334549894 -1.7388660036388701 -0.33887961775627906 -1.7326131495724426 -0.33666996255987236 -1.7265483512674118 Z" fill="#b6be1a" transform="matrix(1,0,0,1,0,0)" fill-rule="nonzero"></path></g><g clip-path="url(#ae1ea2dc9-5c75-48af-9209-5c8854a7eeec747c724b-a998-43b7-a650-f526fd624160)"><path d=" M -0.2761630213306091 -1.4897861476694558 C -0.2719787806395412 -1.4945815695850617 -0.26892287451685115 -1.4927480259114476 -0.2661020380959065 -1.491713719223768 C -0.2632812016749617 -1.4906794125360883 -0.25966112826808274 -1.4892689943256159 -0.25966112826808274 -1.4828280844977921 L -0.2606954349557624 -1.2976401734627747 C -0.2606954349557624 -1.2912462775753002 -0.26934599997999276 -1.2842882144036367 -0.2756928819271184 -1.285040437449222 C -0.2756928819271184 -1.285040437449222 -0.34847046158749073 -1.2883784272140064 -0.3913001612455006 -1.3283872904510716 C -0.397553015311928 -1.3337468796508665 -0.39548440193656853 -1.342538486496144 -0.39144120306654784 -1.3474749502327974 Z" fill="#b6be1a" transform="matrix(1,0,0,1,0,0)" fill-rule="nonzero"></path></g><g clip-path="url(#ae1ea2dc9-5c75-48af-9209-5c8854a7eeec747c724b-a998-43b7-a650-f526fd624160)"><path d=" M 0.03459912437679513 -1.1074217708104062 C 0.021842210864357448 -1.0808413674643222 -0.004126139824798036 -1.0630857943570229 -0.03352390114383863 -1.0608434041516732 C -0.06292166246287922 -1.058601013946324 -0.09128261504191237 -1.072212479065607 -0.10792346234268635 -1.096550492244925 C -0.1245643096434601 -1.1208885054242428 -0.12695691104534834 -1.1522555434166208 -0.11419999674075276 -1.1788359463825193 C -0.10195998250732607 -1.2062721764696993 -0.07578187862739982 -1.2248934481990954 -0.045848677838058904 -1.227456292800738 C -0.01591547704871754 -1.2300191374023808 0.013047075655837181 -1.2161189422813006 0.029772867853455454 -1.191162729481493 C 0.046498660051073504 -1.1662065166816853 0.04834708443389624 -1.1341342824148122 0.03459912437679491 -1.1074217708104057" fill="#4d45a4" transform="matrix(1,0,0,1,0,0)" fill-rule="nonzero"></path></g><g clip-path="url(#ae1ea2dc9-5c75-48af-9209-5c8854a7eeec747c724b-a998-43b7-a650-f526fd624160)"><path d=" M -0.018996767621153543 -1.083820772755169 C -0.05232965132864975 -1.12914221125168 -0.09910852197598219 -1.1222781759607146 -0.09910852197598219 -1.1222781759607146 C -0.09910852197598219 -1.1222781759607146 -0.06098021635288009 -1.1489820940789908 -0.06065111877043661 -1.2023899303155432 C -0.028728653273412563 -1.1598423142996277 0.019507649524741044 -1.1639795410503466 0.019507649524741044 -1.1639795410503466 C 0.019507649524741044 -1.1639795410503466 -0.022287743445589037 -1.1384509714407973 -0.018996767621153543 -1.083820772755169" fill="#24265d" transform="matrix(1,0,0,1,0,0)" fill-rule="nonzero"></path></g><g clip-path="url(#ae1ea2dc9-5c75-48af-9209-5c8854a7eeec747c724b-a998-43b7-a650-f526fd624160)"><path d=" M 0.08598536117833722 -0.9277344907962308 C 0.06536100881173668 -0.8882699651776902 0.017167293057865907 -0.8722555638883214 -0.022974850366795696 -0.8915278500555626 C -0.0631169937914573 -0.9108001362228038 -0.08075876262892967 -0.9584222243658809 -0.0628607739668432 -0.9991956801268289 C -0.04223642160024266 -1.0386602057453695 0.005957294153628112 -1.0546746070347386 0.046099437578289715 -1.0354023208674972 C 0.08624158100295132 -1.016130034700256 0.10388334984042324 -0.9685079465571789 0.08598536117833722 -0.9277344907962308" fill="#4d45a4" transform="matrix(1,0,0,1,0,0)" fill-rule="nonzero"></path></g><g clip-path="url(#ae1ea2dc9-5c75-48af-9209-5c8854a7eeec747c724b-a998-43b7-a650-f526fd624160)"><path d=" M 0.032342455240039314 -0.9041805066813429 C -0.0009904284674566721 -0.9495019451778537 -0.047722285174440104 -0.9426379098868882 -0.047722285174440104 -0.9426379098868882 C -0.047722285174440104 -0.9426379098868882 -0.009640993491687233 -0.9693418280051647 -0.0092648819688943 -1.022749664241717 C 0.022610569587780294 -0.9802490621661506 0.0707998584455849 -0.9843392749765203 0.0707998584455849 -0.9843392749765203 C 0.0707998584455849 -0.9843392749765203 0.029098493355953048 -0.958810705366971 0.032342455240039314 -0.9041805066813429" fill="#24265d" transform="matrix(1,0,0,1,0,0)" fill-rule="nonzero"></path></g><g clip-path="url(#ae1ea2dc9-5c75-48af-9209-5c8854a7eeec747c724b-a998-43b7-a650-f526fd624160)"><path d=" M -0.09238552850606396 -0.9642173085071151 C -0.11211899104209433 -0.923127565792289 -0.1614259410589527 -0.9058148800339685 -0.2025156837737785 -0.9255483425699986 C -0.24360542648860473 -0.9452818051060288 -0.2609181122469255 -0.9945887551228871 -0.24118464971089515 -1.0356784978377134 C -0.2214500682562226 -1.0767510077113087 -0.17218292422643655 -1.0940849644493718 -0.13107800141335502 -1.0744179846853534 C -0.11131002368214582 -1.0649609206464152 -0.09611918927488716 -1.0480245257702983 -0.08885957054619542 -1.0273482848224809 C -0.08159995181750346 -1.0066720438746637 -0.08286864519134896 -0.9839565571197717 -0.09238552850606396 -0.9642173085071151" fill="#4d45a4" transform="matrix(1,0,0,1,0,0)" fill-rule="nonzero"></path></g><g clip-path="url(#ae1ea2dc9-5c75-48af-9209-5c8854a7eeec747c724b-a998-43b7-a650-f526fd624160)"><path d=" M -0.14598142050401264 -0.9406633243922271 C -0.17931430421150862 -0.9859847628887382 -0.22609317485884128 -0.9790737136574237 -0.22609317485884128 -0.9790737136574237 C -0.22609317485884128 -0.9790737136574237 -0.18791785529538996 -1.005824645716049 -0.18758875771294647 -1.0592324819526013 C -0.15576032009662066 -1.0167318798770348 -0.10747700335811783 -1.0207750787470558 -0.10747700335811783 -1.0207750787470558 C -0.10747700335811783 -1.0207750787470558 -0.14927239632844813 -0.9952465091375062 -0.14598142050401264 -0.9406633243922271" fill="#24265d" transform="matrix(1,0,0,1,0,0)" fill-rule="nonzero"></path></g><g clip-path="url(#ae1ea2dc9-5c75-48af-9209-5c8854a7eeec747c724b-a998-43b7-a650-f526fd624160)"><path d=" M 0.822552764627339 -0.8365744604593688 C 0.7731881272608072 -0.8986328617201516 0.7564511644965355 -0.9050737715479751 0.7392910762691223 -0.99200254725342 L 0.739056006567377 -0.991908519372722 C 0.7259434326166685 -1.0468114960445196 0.6763722366023284 -1.085177789721729 0.6199353473964273 -1.084103555204686 C 0.563498458190526 -1.0830293206876433 0.5154231879417099 -1.042804398620332 0.5044094302851296 -0.9874421950395595 C 0.48583892384724403 -0.9115616953161478 0.46853779379878335 -0.9021589072463323 0.42194697891284716 -0.8481398897852419 C 0.37906896426172065 -0.8009911020435456 0.354834724881969 -0.7398372524638825 0.35377676540668457 -0.6761158820479665 C 0.3525567556258875 -0.6062746997724897 0.37913644184271034 -0.5388104437596066 0.4276664729884987 -0.488569870091601 C 0.47619650413428727 -0.4383292964235954 0.5426999480426664 -0.4094295125648588 0.6125414930880089 -0.4082304499389209 C 0.7147189144221653 -0.4064289861232879 0.8087182657310377 -0.4638873640923702 0.8537060714747164 -0.5556455682854877 C 0.8986938772183948 -0.6474037724786053 0.8865511709620721 -0.7569021648416874 0.822552764627339 -0.8365744604593688" fill="#b6be1a" transform="matrix(1,0,0,1,0,0)" fill-rule="nonzero"></path></g><g clip-path="url(#ae1ea2dc9-5c75-48af-9209-5c8854a7eeec747c724b-a998-43b7-a650-f526fd624160)"><path d=" M 0.4177157242814302 -0.8429683563468435 C 0.37749990126286614 -0.7965672523140304 0.35486860460622216 -0.737509552435774 0.35377676540668457 -0.6761158820479665 C 0.3525567556258875 -0.6062746997724902 0.3791364418427101 -0.5388104437596066 0.4276664729884987 -0.488569870091601 C 0.47619650413428727 -0.4383292964235954 0.5426999480426664 -0.4094295125648588 0.6125414930880089 -0.4082304499389209 C 0.6259874800278449 -0.40799538023717563 0.6389633275641902 -0.4089826729845063 0.6518921611601867 -0.41067517483707316 C 0.5464398929572052 -0.5056903482825592 0.627303870357619 -0.7207791253795903 0.4177157242814302 -0.8429683563468435" fill="#a5b71f" transform="matrix(1,0,0,1,0,0)" fill-rule="nonzero"></path></g><g clip-path="url(#ae1ea2dc9-5c75-48af-9209-5c8854a7eeec747c724b-a998-43b7-a650-f526fd624160)"><path d=" M 0.6924651916814408 -1.0406149615743663 C 0.6999874221372935 -1.031870368669438 0.7016799239898601 -1.021010148448801 0.6960382511479708 -1.0161677125928459 C 0.6903965783060815 -1.011419304617589 0.679865455667888 -1.0147102804420247 0.6723432252120356 -1.0232668175855566 C 0.6648680086965322 -1.0321054383711832 0.6632225207843145 -1.0430596864725183 0.6687701657455056 -1.0477610805074262 C 0.6744118385873952 -1.0526505303037303 0.6850369891062864 -1.0494065684196439 0.6924651916814408 -1.0406149615743663" fill="#ffffff" transform="matrix(1,0,0,1,0,0)" fill-rule="nonzero"></path></g><g clip-path="url(#ae1ea2dc9-5c75-48af-9209-5c8854a7eeec747c724b-a998-43b7-a650-f526fd624160)"><path d=" M 0.6001768267762011 -1.070421799755682 C 0.6019578590743941 -1.0687219976147075 0.6043423815343196 -1.0678012668100207 0.6068035987501348 -1.0678630177795931 C 0.6092648159659497 -1.0679247687491658 0.611600165775674 -1.0689639192882163 0.6132937161335938 -1.0707508973381255 C 0.6032797468392403 -1.1778016395129756 0.6111310748775363 -1.2526478325487076 0.6116952421617252 -1.252882902250453 C 0.5972149485342093 -1.2624737460816646 0.5854614634469397 -1.2524597767873111 0.5854614634469397 -1.2524597767873111 C 0.588047230166139 -1.1162133776556837 0.6000827988955031 -1.0705158276363802 0.6001768267762011 -1.070421799755682" fill="#54351d" transform="matrix(1,0,0,1,0,0)" fill-rule="nonzero"></path></g><g clip-path="url(#ae1ea2dc9-5c75-48af-9209-5c8854a7eeec747c724b-a998-43b7-a650-f526fd624160)"><path d=" M 0.5948642515167553 -1.1612057185697509 C 0.5617194235706553 -1.236804134651068 0.46933703078471756 -1.274227231168934 0.3932214613595606 -1.2292348902548667 C 0.41381356723245677 -1.1528842511279642 0.5245784106948841 -1.1143328200417204 0.5948642515167553 -1.1612057185697509" fill="#7aaf2b" transform="matrix(1,0,0,1,0,0)" fill-rule="nonzero"></path></g><g clip-path="url(#ae1ea2dc9-5c75-48af-9209-5c8854a7eeec747c724b-a998-43b7-a650-f526fd624160)"><path d=" M 0.3932214613595606 -1.2292348902548667 L 0.5948642515167553 -1.1612057185697509 C 0.5245784106948839 -1.1143798339820694 0.41381356723245677 -1.1528842511279642 0.3932214613595606 -1.2292348902548667" fill="#719b23" transform="matrix(1,0,0,1,0,0)" fill-rule="nonzero"></path></g><g clip-path="url(#ae1ea2dc9-5c75-48af-9209-5c8854a7eeec747c724b-a998-43b7-a650-f526fd624160)"><path d=" M 0.3339838965197228 -2.4087676396728797 C 0.3447030749193123 -2.4012924231573765 0.3494984968349184 -2.3896329659508053 0.3447500888596615 -2.3828159446001886 C 0.33995466694405563 -2.3759989232495724 0.32740194487085184 -2.3765160765934126 0.3166357525309129 -2.3840383070492646 C 0.30596358807167245 -2.3915605375051174 0.30112115221571734 -2.4031259668309906 0.3058695601909742 -2.4099900021219556 C 0.3106649821065801 -2.416854037412921 0.3232177041797839 -2.4162428561883833 0.3339838965197228 -2.4087676396728797" fill="#ffffff" transform="matrix(1,0,0,1,0,0)" fill-rule="nonzero"></path></g></g></g><defs><clipPath id="SvgjsClipPath1002"><path d=" M -1.2542880502931728 -2.6896586816851493 h 2.5085761005863456 v 2.5021586816851493 h -2.5085761005863456 Z"></path></clipPath><clipPath id="ae1ea2dc9-5c75-48af-9209-5c8854a7eeec747c724b-a998-43b7-a650-f526fd624160"><path d=" M -1.2542880502931728 -0.18750000000000044 L 1.2542817788529204 -0.18750000000000044 L 1.2542817788529204 -2.68962891931827 L -1.2542880502931728 -2.68962891931827 Z"></path></clipPath></defs></svg>